<svg width="278" height="250" viewBox="0 0 278 250" fill="none" xmlns="http://www.w3.org/2000/svg">
<path d="M236.065 145.444C236.065 145.444 236.065 143.166 239.26 139.971C242.456 136.776 244.51 134.951 244.51 134.951C244.51 134.951 246.104 140.2 243.138 143.39C240.961 145.637 238.598 147.699 236.077 149.552L236.065 145.444Z" fill="#92DBE3"/>
<path d="M240.702 159.697C240.702 159.697 240.702 157.414 243.898 154.218C247.093 151.023 249.141 149.198 249.141 149.198C249.141 149.198 250.742 154.448 247.776 157.643C245.598 159.891 243.236 161.952 240.714 163.805L240.702 159.697Z" fill="#92DBE3"/>
<path d="M236.265 149.334C236.265 149.334 236.024 147.062 232.51 144.226C228.997 141.389 226.761 139.789 226.761 139.789C226.761 139.789 225.731 145.173 229.015 148.027C231.423 150.03 233.994 151.829 236.7 153.406L236.265 149.334Z" fill="#92DBE3"/>
<path d="M241.867 166.141C241.867 166.141 241.391 163.911 237.595 161.433C233.799 158.956 231.416 157.626 231.416 157.626C231.416 157.626 230.951 163.093 234.523 165.594C237.126 167.334 239.87 168.854 242.727 170.137L241.867 166.141Z" fill="#92DBE3"/>
<path d="M240.814 184.508C240.814 184.508 240.814 182.224 237.618 179.029C234.423 175.833 232.375 174.009 232.375 174.009C232.375 174.009 230.774 179.258 233.74 182.454C235.918 184.701 238.28 186.762 240.802 188.615L240.814 184.508Z" fill="#92DBE3"/>
<path d="M240.867 188.986C240.867 188.986 240.543 186.726 243.221 183.101C245.899 179.476 247.705 177.387 247.705 177.387C247.705 177.387 250.059 182.354 247.546 185.938C245.706 188.472 243.657 190.848 241.42 193.041L240.867 188.986Z" fill="#92DBE3"/>
<path d="M244.045 202.256C244.045 202.256 244.045 199.973 240.849 196.783C237.654 193.594 235.606 191.764 235.606 191.764C235.606 191.764 234.005 197.007 236.971 200.203C239.149 202.45 241.511 204.511 244.033 206.364L244.045 202.256Z" fill="#92DBE3"/>
<path d="M241.885 214.291C241.885 214.291 242.474 212.084 240.178 208.182C237.883 204.281 236.394 201.997 236.394 201.997C236.394 201.997 233.517 206.67 235.576 210.513C237.124 213.239 238.895 215.831 240.873 218.263L241.885 214.291Z" fill="#92DBE3"/>
<path d="M235.806 144.861C235.97 147.229 236.262 149.587 236.683 151.923C237.942 158.444 241.102 162.657 242.362 168.548C243.621 174.439 240.008 182.03 240.973 189.598C241.938 197.166 244.886 201.368 244.045 206.429C243.203 211.49 238.748 225.178 238.748 225.178" stroke="#263238" stroke-linecap="round" stroke-linejoin="round"/>
<path d="M236.3 150.846L232.858 148.21" stroke="#263238" stroke-linecap="round" stroke-linejoin="round"/>
<path d="M236.135 147.804L237.577 145.244" stroke="#263238" stroke-linecap="round" stroke-linejoin="round"/>
<path d="M242.144 168.301C242.144 168.301 239.26 166.141 236.3 163.975" stroke="#263238" stroke-linecap="round" stroke-linejoin="round"/>
<path d="M240.702 163.787C242.139 161.009 243.854 158.385 245.822 155.954" stroke="#263238" stroke-linecap="round" stroke-linejoin="round"/>
<path d="M240.702 187.75C239.056 184.72 236.978 181.945 234.535 179.511" stroke="#263238" stroke-linecap="round" stroke-linejoin="round"/>
<path d="M241.261 190.957C242.137 188.899 243.182 186.917 244.386 185.031C246.063 182.548 246.305 182.23 246.305 182.23" stroke="#263238" stroke-linecap="round" stroke-linejoin="round"/>
<path d="M244.045 206.452C243.316 204.638 242.448 202.883 241.45 201.203C240.453 199.645 239.329 198.173 238.089 196.801" stroke="#263238" stroke-linecap="round" stroke-linejoin="round"/>
<path d="M240.843 218.263C241.009 216.531 240.71 214.786 239.978 213.208C238.801 210.889 237.418 207.847 236.859 206.646" stroke="#263238" stroke-linecap="round" stroke-linejoin="round"/>
<path d="M256.991 175.927C256.991 175.927 257.244 174.497 255.585 172.144C253.925 169.79 252.843 168.43 252.843 168.43C252.843 168.43 251.271 171.543 252.784 173.874C253.907 175.519 255.167 177.066 256.55 178.499L256.991 175.927Z" fill="#92DBE3"/>
<path d="M252.531 184.384C252.531 184.384 252.778 182.948 251.118 180.6C249.459 178.252 248.376 176.887 248.376 176.887C248.376 176.887 246.805 180 248.317 182.324C249.441 183.971 250.701 185.52 252.084 186.956L252.531 184.384Z" fill="#92DBE3"/>
<path d="M256.432 178.34C256.432 178.34 256.833 176.946 259.345 175.545C261.858 174.144 263.429 173.385 263.429 173.385C263.429 173.385 263.494 176.881 261.123 178.317C259.395 179.311 257.588 180.159 255.72 180.853L256.432 178.34Z" fill="#92DBE3"/>
<path d="M251.107 188.286C251.107 188.286 251.648 186.938 254.296 185.814C256.944 184.69 258.586 184.096 258.586 184.096C258.586 184.096 258.28 187.574 255.773 188.751C253.95 189.56 252.062 190.216 250.13 190.71L251.107 188.286Z" fill="#92DBE3"/>
<path d="M249.765 199.902C249.765 199.902 250.012 198.472 252.36 196.819C254.708 195.165 256.197 194.241 256.197 194.241C256.197 194.241 256.627 197.701 254.432 199.385C252.821 200.558 251.114 201.593 249.329 202.48L249.765 199.902Z" fill="#92DBE3"/>
<path d="M249.247 202.71C249.247 202.71 249.694 201.327 248.388 198.767C247.081 196.207 246.199 194.694 246.199 194.694C246.199 194.694 244.198 197.56 245.369 200.073C246.246 201.863 247.271 203.575 248.435 205.193L249.247 202.71Z" fill="#92DBE3"/>
<path d="M245.222 214.25C245.222 214.25 245.057 212.808 242.809 211.019C240.561 209.23 239.125 208.224 239.125 208.224C239.125 208.224 238.495 211.66 240.602 213.461C242.144 214.725 243.79 215.857 245.522 216.845L245.222 214.25Z" fill="#92DBE3"/>
<path d="M245.81 210.689C245.81 210.689 246.057 209.259 248.411 207.6C250.765 205.94 252.242 205.022 252.242 205.022C252.242 205.022 252.678 208.488 250.477 210.166C248.864 211.339 247.156 212.375 245.369 213.261L245.81 210.689Z" fill="#92DBE3"/>
<path d="M245.857 218.463C245.857 218.463 245.74 217.016 247.593 214.821C249.447 212.625 250.648 211.354 250.648 211.354C250.648 211.354 251.942 214.597 250.236 216.78C248.973 218.323 247.583 219.759 246.081 221.07L245.857 218.463Z" fill="#92DBE3"/>
<path d="M257.227 175.592C256.867 177.065 256.427 178.516 255.909 179.941C254.408 183.89 251.972 186.191 250.542 189.745C249.112 193.3 250.542 198.461 249.129 203.098C247.717 207.735 245.392 210.06 245.375 213.32C245.357 216.58 246.64 225.631 246.64 225.631" stroke="#263238" stroke-linecap="round" stroke-linejoin="round"/>
<path d="M256.25 179.288L258.698 178.005" stroke="#263238" stroke-linecap="round" stroke-linejoin="round"/>
<path d="M256.68 177.399L256.056 175.633" stroke="#263238" stroke-linecap="round" stroke-linejoin="round"/>
<path d="M250.689 189.598C250.689 189.598 252.731 188.556 254.808 187.521" stroke="#263238" stroke-linecap="round" stroke-linejoin="round"/>
<path d="M252.083 186.932C251.488 185.034 250.699 183.202 249.73 181.465" stroke="#263238" stroke-linecap="round" stroke-linejoin="round"/>
<path d="M249.482 201.95C250.845 200.229 252.448 198.712 254.243 197.448" stroke="#263238" stroke-linecap="round" stroke-linejoin="round"/>
<path d="M248.782 203.898C248.457 202.513 248.018 201.157 247.47 199.844C246.687 198.108 246.569 197.878 246.569 197.878" stroke="#263238" stroke-linecap="round" stroke-linejoin="round"/>
<path d="M245.487 215.792C244.692 214.806 243.812 213.892 242.856 213.061C242.247 212.612 241.677 212.114 241.149 211.572" stroke="#263238" stroke-linecap="round" stroke-linejoin="round"/>
<path d="M245.375 213.32C246.029 212.261 246.763 211.254 247.57 210.307C248.366 209.439 249.232 208.638 250.159 207.912" stroke="#263238" stroke-linecap="round" stroke-linejoin="round"/>
<path d="M246.081 221.07C246.162 219.966 246.538 218.903 247.17 217.992C248.176 216.668 249.359 214.909 249.841 214.214" stroke="#263238" stroke-linecap="round" stroke-linejoin="round"/>
<path d="M236.683 247.352H250.018C250.296 247.352 250.562 247.242 250.759 247.045C250.955 246.849 251.065 246.582 251.065 246.305L254.373 224.225H232.328L235.635 246.305C235.635 246.582 235.746 246.849 235.942 247.045C236.139 247.242 236.405 247.352 236.683 247.352Z" fill="#263238" stroke="#263238" stroke-linecap="round" stroke-linejoin="round"/>
<path d="M34.4672 145.444C34.4672 145.444 34.4672 143.166 31.2717 139.971C28.0763 136.776 26.0283 134.951 26.0283 134.951C26.0283 134.951 24.4276 140.2 27.3936 143.39C29.5714 145.637 31.9336 147.699 34.4555 149.552L34.4672 145.444Z" fill="#92DBE3"/>
<path d="M29.8359 159.697C29.8359 159.697 29.8359 157.414 26.6463 154.218C23.4567 151.023 21.397 149.198 21.397 149.198C21.397 149.198 19.8022 154.448 22.7681 157.643C24.949 159.884 27.3131 161.939 29.8359 163.787V159.697Z" fill="#92DBE3"/>
<path d="M34.2671 149.334C34.2671 149.334 34.5084 147.062 38.0217 144.226C41.535 141.389 43.7712 139.789 43.7712 139.789C43.7712 139.789 44.8069 145.173 41.5173 148.027C39.1098 150.031 36.539 151.831 33.8317 153.406L34.2671 149.334Z" fill="#92DBE3"/>
<path d="M28.6589 166.141C28.6589 166.141 29.1414 163.911 32.9313 161.433C36.7211 158.956 39.1163 157.626 39.1163 157.626C39.1163 157.626 39.5753 163.093 36.0091 165.594C33.3941 167.335 30.6383 168.855 27.7703 170.137L28.6589 166.141Z" fill="#92DBE3"/>
<path d="M29.7181 184.508C29.7181 184.508 29.7181 182.224 32.9136 179.029C36.1091 175.833 38.1629 174.009 38.1629 174.009C38.1629 174.009 39.7577 179.258 36.7917 182.454C34.614 184.701 32.2518 186.762 29.7299 188.615L29.7181 184.508Z" fill="#92DBE3"/>
<path d="M29.6652 188.986C29.6652 188.986 29.9889 186.726 27.3112 183.101C24.6336 179.476 22.8329 177.387 22.8329 177.387C22.8329 177.387 20.4789 182.354 22.9859 185.938C24.8264 188.472 26.8756 190.848 29.112 193.041L29.6652 188.986Z" fill="#92DBE3"/>
<path d="M26.5168 202.256C26.5168 202.256 26.5168 199.973 29.7123 196.783C32.9077 193.594 34.9616 191.764 34.9616 191.764C34.9616 191.764 36.5564 197.007 33.5904 200.203C31.4126 202.45 29.0504 204.511 26.5286 206.364L26.5168 202.256Z" fill="#92DBE3"/>
<path d="M28.6589 214.291C28.6589 214.291 28.0704 212.084 30.3596 208.182C32.6488 204.281 34.1671 201.997 34.1671 201.997C34.1671 201.997 37.0389 206.67 34.9792 210.513C33.4344 213.24 31.6627 215.833 29.6828 218.263L28.6589 214.291Z" fill="#92DBE3"/>
<path d="M34.7556 144.861C34.5938 147.229 34.303 149.587 33.8846 151.923C32.6194 158.444 29.4651 162.657 28.1998 168.548C26.9346 174.439 30.5538 182.03 29.5945 189.598C28.6353 197.166 25.6752 201.368 26.5168 206.429C27.3583 211.49 31.7778 225.154 31.7778 225.154" stroke="#263238" stroke-linecap="round" stroke-linejoin="round"/>
<path d="M34.2377 150.846L37.6804 148.21" stroke="#263238" stroke-linecap="round" stroke-linejoin="round"/>
<path d="M34.3966 147.804L32.9548 145.244" stroke="#263238" stroke-linecap="round" stroke-linejoin="round"/>
<path d="M28.3941 168.301C28.3941 168.301 31.2718 166.141 34.2377 163.975" stroke="#263238" stroke-linecap="round" stroke-linejoin="round"/>
<path d="M29.8358 163.787C28.3992 161.009 26.6838 158.385 24.716 155.954" stroke="#263238" stroke-linecap="round" stroke-linejoin="round"/>
<path d="M29.8358 187.75C31.479 184.719 33.5545 181.944 35.9973 179.511" stroke="#263238" stroke-linecap="round" stroke-linejoin="round"/>
<path d="M29.2474 190.957C28.3725 188.9 27.3293 186.918 26.1284 185.031C24.4453 182.548 24.204 182.23 24.204 182.23" stroke="#263238" stroke-linecap="round" stroke-linejoin="round"/>
<path d="M26.5168 206.452C27.2455 204.638 28.1132 202.883 29.112 201.203C30.1086 199.645 31.2325 198.173 32.4723 196.801" stroke="#263238" stroke-linecap="round" stroke-linejoin="round"/>
<path d="M29.6887 218.263C29.5253 216.535 29.8238 214.795 30.5538 213.22C31.7308 210.901 33.1137 207.859 33.6728 206.658" stroke="#263238" stroke-linecap="round" stroke-linejoin="round"/>
<path d="M13.5524 175.927C13.5524 175.927 13.3053 174.497 14.9589 172.144C16.6126 169.79 17.7071 168.43 17.7071 168.43C17.7071 168.43 19.2784 171.543 17.766 173.874C16.6427 175.519 15.3828 177.066 13.9997 178.499L13.5524 175.927Z" fill="#92DBE3"/>
<path d="M18.0073 184.384C18.0073 184.384 17.7601 182.948 19.4138 180.6C21.0674 178.252 22.1855 176.863 22.1855 176.863C22.1855 176.863 23.7568 179.976 22.2385 182.301C21.1145 183.947 19.8547 185.496 18.4722 186.932L18.0073 184.384Z" fill="#92DBE3"/>
<path d="M14.0997 178.34C14.0997 178.34 13.6995 176.946 11.1926 175.545C8.68565 174.144 7.10262 173.385 7.10262 173.385C7.10262 173.385 7.03789 176.881 9.41537 178.317C11.1425 179.311 12.9496 180.159 14.8177 180.853L14.0997 178.34Z" fill="#92DBE3"/>
<path d="M19.4373 188.286C19.4373 188.286 18.8959 186.938 16.2536 185.814C13.6113 184.69 11.9635 184.096 11.9635 184.096C11.9635 184.096 12.2636 187.574 14.7765 188.751C16.5994 189.561 18.4873 190.216 20.4201 190.71L19.4373 188.286Z" fill="#92DBE3"/>
<path d="M20.7673 199.902C20.7673 199.902 20.5201 198.472 18.172 196.819C15.824 195.165 14.3351 194.241 14.3351 194.241C14.3351 194.241 13.9055 197.701 16.1006 199.385C17.7115 200.558 19.4183 201.593 21.2027 202.48L20.7673 199.902Z" fill="#92DBE3"/>
<path d="M21.291 202.71C21.291 202.71 20.8379 201.327 22.1443 198.767C23.4508 196.207 24.3335 194.694 24.3335 194.694C24.3335 194.694 26.3343 197.56 25.1691 200.073C24.2891 201.862 23.2616 203.575 22.0972 205.193L21.291 202.71Z" fill="#92DBE3"/>
<path d="M25.2986 214.25C25.2986 214.25 25.4634 212.808 27.7173 211.019C29.9712 209.23 31.3953 208.224 31.3953 208.224C31.3953 208.224 32.025 211.66 29.9182 213.461C28.3761 214.725 26.7303 215.857 24.9985 216.845L25.2986 214.25Z" fill="#92DBE3"/>
<path d="M24.7042 210.689C24.7042 210.689 24.4571 209.259 22.109 207.6C19.7609 205.94 18.2721 205.022 18.2721 205.022C18.2721 205.022 17.8425 208.488 20.0375 210.166C21.6448 211.338 23.3475 212.373 25.1279 213.261L24.7042 210.689Z" fill="#92DBE3"/>
<path d="M24.6748 218.463C24.6748 218.463 24.7984 217.016 22.9447 214.821C21.0909 212.625 19.8845 211.354 19.8845 211.354C19.8845 211.354 18.5899 214.597 20.2965 216.78C21.5594 218.323 22.9492 219.759 24.4512 221.07L24.6748 218.463Z" fill="#92DBE3"/>
<path d="M13.3053 175.592C13.6655 177.065 14.1056 178.516 14.6235 179.941C16.1241 183.89 18.5604 186.191 19.9905 189.745C21.4205 193.3 19.9905 198.461 21.4028 203.098C22.8152 207.735 25.1397 210.06 25.1574 213.32C25.175 216.58 23.8921 225.631 23.8921 225.631" stroke="#263238" stroke-linecap="round" stroke-linejoin="round"/>
<path d="M14.2822 179.288L11.8399 178.005" stroke="#263238" stroke-linecap="round" stroke-linejoin="round"/>
<path d="M13.8526 177.399L14.4764 175.633" stroke="#263238" stroke-linecap="round" stroke-linejoin="round"/>
<path d="M19.8316 189.598C19.8316 189.598 17.7895 188.556 15.7122 187.521" stroke="#263238" stroke-linecap="round" stroke-linejoin="round"/>
<path d="M18.4486 186.932C19.0445 185.034 19.8332 183.202 20.8026 181.465" stroke="#263238" stroke-linecap="round" stroke-linejoin="round"/>
<path d="M21.0497 201.95C19.6911 200.229 18.0917 198.713 16.3006 197.448" stroke="#263238" stroke-linecap="round" stroke-linejoin="round"/>
<path d="M21.75 203.898C22.0753 202.513 22.5142 201.157 23.0624 199.844C23.8509 198.108 23.9627 197.878 23.9627 197.878" stroke="#263238" stroke-linecap="round" stroke-linejoin="round"/>
<path d="M25.0515 215.792C25.8435 214.805 26.7218 213.891 27.6761 213.061C28.2857 212.611 28.8583 212.113 29.3886 211.572" stroke="#263238" stroke-linecap="round" stroke-linejoin="round"/>
<path d="M25.1574 213.32C24.5033 212.261 23.7695 211.254 22.9623 210.307C22.1689 209.442 21.3047 208.645 20.3789 207.923" stroke="#263238" stroke-linecap="round" stroke-linejoin="round"/>
<path d="M24.4512 221.07C24.3696 219.966 23.9937 218.903 23.3625 217.992C22.3562 216.668 21.1733 214.909 20.6908 214.214" stroke="#263238" stroke-linecap="round" stroke-linejoin="round"/>
<path d="M33.8493 247.352H20.5142C20.2364 247.352 19.97 247.242 19.7735 247.045C19.5771 246.849 19.4667 246.582 19.4667 246.305L16.1594 224.225H38.2041L34.8968 246.305C34.8968 246.582 34.7865 246.849 34.59 247.045C34.3936 247.242 34.1271 247.352 33.8493 247.352Z" fill="#263238" stroke="#263238" stroke-linecap="round" stroke-linejoin="round"/>
<g opacity="0.3">
<path d="M269.085 189.68H188.18V43.1474C188.18 32.6903 192.334 22.6615 199.728 15.2672C207.122 7.87288 217.151 3.71882 227.608 3.71882C238.604 3.71882 249.149 8.0868 256.924 15.8618C264.699 23.6369 269.067 34.1821 269.067 45.1777V189.68H269.085Z" stroke="black" stroke-linecap="round" stroke-linejoin="round"/>
<path d="M259.934 189.245V45.5013C259.934 41.3884 259.124 37.3158 257.55 33.516C255.976 29.7161 253.669 26.2635 250.761 23.3553C247.852 20.447 244.4 18.1401 240.6 16.5661C236.8 14.9922 232.728 14.1821 228.615 14.1821C220.311 14.1868 212.35 17.4885 206.48 23.3615C200.61 29.2345 197.313 37.198 197.313 45.5013V189.268" stroke="black" stroke-linecap="round" stroke-linejoin="round"/>
<path d="M228.632 3.71881V189.463" stroke="black" stroke-linecap="round" stroke-linejoin="round"/>
<path d="M268.649 39.4988H188.721" stroke="black" stroke-linecap="round" stroke-linejoin="round"/>
<path d="M268.649 64.7272H188.721" stroke="black" stroke-linecap="round" stroke-linejoin="round"/>
<path d="M268.649 89.9556H188.721" stroke="black" stroke-linecap="round" stroke-linejoin="round"/>
<path d="M268.649 115.19H188.721" stroke="black" stroke-linecap="round" stroke-linejoin="round"/>
<path d="M268.649 140.418H188.721" stroke="black" stroke-linecap="round" stroke-linejoin="round"/>
<path d="M268.649 165.647H188.721" stroke="black" stroke-linecap="round" stroke-linejoin="round"/>
<path d="M257.962 16.3418L250.718 22.9446" stroke="black" stroke-linecap="round" stroke-linejoin="round"/>
<path d="M199.602 16.3418L206.852 22.9446" stroke="black" stroke-linecap="round" stroke-linejoin="round"/>
</g>
<path d="M140.954 32.6135H133.239C132.851 32.613 132.47 32.5146 132.13 32.3274C131.791 32.1401 131.504 31.8701 131.297 31.5424C129.614 28.8825 125.471 21.9795 126.053 19.0842C126.848 15.2002 137.599 8.20307 137.599 8.20307C137.599 8.20307 147.451 15.0942 148.157 18.7546C148.745 21.6971 144.585 28.806 142.908 31.5248C142.701 31.8574 142.414 32.132 142.072 32.3225C141.73 32.513 141.345 32.6131 140.954 32.6135Z" stroke="#999999" stroke-linecap="round" stroke-linejoin="round"/>
<path d="M138.317 31.3423L131.644 35.2028C131.308 35.3962 130.928 35.5013 130.54 35.5085C130.152 35.5157 129.769 35.4247 129.425 35.244C126.636 33.7904 119.598 29.877 118.656 27.0817C117.397 23.3213 123.211 11.8811 123.211 11.8811C123.211 11.8811 135.192 12.9227 137.635 15.7475C139.606 18.0249 139.565 26.2343 139.471 29.4298C139.458 29.8207 139.346 30.2018 139.144 30.5367C138.942 30.8716 138.657 31.149 138.317 31.3423Z" stroke="#999999" stroke-linecap="round" stroke-linejoin="round"/>
<path d="M135.398 31.566L131.544 38.2453C131.353 38.5857 131.08 38.8722 130.748 39.078C130.417 39.2839 130.039 39.4023 129.649 39.4223C126.501 39.5576 118.468 39.693 116.237 37.7333C113.295 35.1087 112.583 22.2914 112.583 22.2914C112.583 22.2914 123.476 17.2069 127.001 18.431C129.849 19.4196 133.921 26.5521 135.434 29.365C135.614 29.7051 135.705 30.0852 135.699 30.47C135.693 30.8548 135.589 31.2318 135.398 31.566Z" stroke="#999999" stroke-linecap="round" stroke-linejoin="round"/>
<path d="M132.986 33.2196V40.9288C132.985 41.3165 132.887 41.6978 132.7 42.0373C132.512 42.3768 132.242 42.6635 131.915 42.8708C129.255 44.5597 122.352 48.7027 119.456 48.1142C115.572 47.3256 108.575 36.5681 108.575 36.5681C108.575 36.5681 115.466 26.7168 119.127 26.0165C122.069 25.4281 129.178 29.5886 131.897 31.2658C132.23 31.472 132.504 31.7597 132.695 32.1015C132.885 32.4434 132.985 32.8282 132.986 33.2196Z" stroke="#999999" stroke-linecap="round" stroke-linejoin="round"/>
<path d="M131.715 35.856L135.575 42.5589C135.768 42.8943 135.873 43.2731 135.88 43.66C135.887 44.0468 135.796 44.4292 135.616 44.7716C134.163 47.5669 130.249 54.6052 127.454 55.5409C123.693 56.8003 112.253 50.986 112.253 50.986C112.253 50.986 113.295 39.0103 116.114 36.5681C118.397 34.5908 126.606 34.6379 129.802 34.732C130.19 34.7414 130.569 34.8495 130.904 35.0462C131.239 35.2428 131.518 35.5216 131.715 35.856Z" stroke="#999999" stroke-linecap="round" stroke-linejoin="round"/>
<path d="M131.938 38.7749L138.617 42.6295C138.958 42.8196 139.245 43.0933 139.451 43.4248C139.657 43.7563 139.775 44.1347 139.794 44.5244C139.93 47.6728 140.059 55.7057 138.106 57.936C135.481 60.9079 122.664 61.5905 122.664 61.5905C122.664 61.5905 117.579 50.6977 118.803 47.1667C119.786 44.3185 126.924 40.252 129.737 38.7396C130.077 38.5595 130.457 38.4684 130.842 38.4745C131.227 38.4807 131.604 38.584 131.938 38.7749Z" stroke="#999999" stroke-linecap="round" stroke-linejoin="round"/>
<path d="M133.592 41.1877H141.301C141.689 41.1882 142.07 41.2866 142.41 41.4738C142.749 41.6611 143.036 41.9311 143.243 42.2588C144.932 44.9128 149.075 51.8217 148.486 54.7111C147.698 58.601 136.94 65.5981 136.94 65.5981C136.94 65.5981 127.089 58.707 126.389 55.0407C125.8 52.0983 129.961 44.9893 131.638 42.2764C131.844 41.9438 132.132 41.6692 132.474 41.4787C132.816 41.2882 133.2 41.188 133.592 41.1877Z" stroke="#999999" stroke-linecap="round" stroke-linejoin="round"/>
<path d="M136.228 42.453L142.908 38.5984C143.243 38.4046 143.621 38.2987 144.008 38.2905C144.395 38.2823 144.777 38.372 145.12 38.5513C147.916 40.0107 154.954 43.9183 155.89 46.7195C157.149 50.4799 151.335 61.9201 151.335 61.9201C151.335 61.9201 139.359 60.8726 136.917 58.0537C134.939 55.7763 134.987 47.5669 135.081 44.3714C135.093 43.9805 135.205 43.5991 135.406 43.2635C135.607 42.9278 135.89 42.6488 136.228 42.453Z" stroke="#999999" stroke-linecap="round" stroke-linejoin="round"/>
<path d="M139.141 42.2352L143.002 35.55C143.196 35.2155 143.471 34.9354 143.803 34.7358C144.134 34.5362 144.51 34.4236 144.897 34.4084C148.045 34.273 156.078 34.1377 158.308 36.0914C161.28 38.722 161.963 51.5333 161.963 51.5333C161.963 51.5333 151.064 56.6178 147.533 55.3997C144.685 54.411 140.618 47.2785 139.1 44.4656C138.917 44.121 138.824 43.7353 138.831 43.3451C138.839 42.9548 138.945 42.5728 139.141 42.2352Z" stroke="#999999" stroke-linecap="round" stroke-linejoin="round"/>
<path d="M141.56 40.5816V32.8665C141.561 32.4797 141.659 32.0994 141.847 31.7609C142.034 31.4224 142.304 31.1367 142.631 30.9304C145.285 29.2414 152.194 25.0985 155.083 25.687C158.973 26.4756 165.97 37.2272 165.97 37.2272C165.97 37.2272 159.079 47.0785 155.413 47.7846C152.47 48.3731 145.362 44.2125 142.643 42.5354C142.312 42.328 142.038 42.04 141.849 41.6983C141.66 41.3565 141.56 40.9723 141.56 40.5816Z" stroke="#999999" stroke-linecap="round" stroke-linejoin="round"/>
<path d="M142.825 37.9452L138.971 31.2658C138.777 30.9298 138.671 30.5504 138.663 30.1626C138.655 29.7748 138.744 29.3912 138.924 29.0473C140.383 26.2578 144.29 19.2195 147.092 18.278C150.852 17.0186 162.292 22.8387 162.292 22.8387C162.292 22.8387 161.245 34.8144 158.426 37.2625C156.148 39.2339 147.933 39.1928 144.744 39.0986C144.352 39.0855 143.97 38.9728 143.635 38.7709C143.299 38.5691 143.02 38.2848 142.825 37.9452Z" stroke="#999999" stroke-linecap="round" stroke-linejoin="round"/>
<path d="M142.607 35.0263L135.922 31.1717C135.588 30.9772 135.308 30.7016 135.109 30.3704C134.909 30.0392 134.796 29.6631 134.781 29.2768C134.645 26.1284 134.51 18.0955 136.464 15.8652C139.094 12.9227 151.905 12.2107 151.905 12.2107C151.905 12.2107 156.99 23.1035 155.772 26.6286C154.783 29.4768 147.651 33.5492 144.838 35.0616C144.494 35.2475 144.109 35.3419 143.718 35.3357C143.327 35.3295 142.945 35.2229 142.607 35.0263Z" stroke="#999999" stroke-linecap="round" stroke-linejoin="round"/>
<path d="M137.27 72.7953C157.096 72.7953 173.168 56.7234 173.168 36.8977C173.168 17.0719 157.096 1 137.27 1C117.444 1 101.372 17.0719 101.372 36.8977C101.372 56.7234 117.444 72.7953 137.27 72.7953Z" stroke="#999999" stroke-linecap="round" stroke-linejoin="round"/>
<path d="M137.599 8.20307V1" stroke="#999999" stroke-linecap="round" stroke-linejoin="round"/>
<path d="M136.94 65.5981V72.7953" stroke="#999999" stroke-linecap="round" stroke-linejoin="round"/>
<path d="M165.97 37.2272H173.167" stroke="#999999" stroke-linecap="round" stroke-linejoin="round"/>
<path d="M108.575 36.5681H101.372" stroke="#999999" stroke-linecap="round" stroke-linejoin="round"/>
<path d="M119.474 19.1666L112.171 11.8635" stroke="#999999" stroke-linecap="round" stroke-linejoin="round"/>
<path d="M154.66 54.7935L162.622 62.7616" stroke="#999999" stroke-linecap="round" stroke-linejoin="round"/>
<path d="M154.877 20.0493L162.845 12.0871" stroke="#999999" stroke-linecap="round" stroke-linejoin="round"/>
<path d="M119.474 54.3521L111.724 62.0966" stroke="#999999" stroke-linecap="round" stroke-linejoin="round"/>
<g opacity="0.3">
<path d="M85.7479 189.68H4.84282L4.84282 43.1474C4.84282 32.6903 8.99689 22.6615 16.3912 15.2672C23.7855 7.87288 33.8143 3.71882 44.2714 3.71882C55.267 3.71882 65.8122 8.0868 73.5872 15.8618C81.3623 23.6369 85.7302 34.1821 85.7302 45.1777L85.7302 189.68H85.7479Z" stroke="black" stroke-linecap="round" stroke-linejoin="round"/>
<path d="M76.6087 189.245V45.5013C76.6118 41.3864 75.804 37.3113 74.2314 33.5087C72.6589 29.7062 70.3524 26.2508 67.4438 23.3401C64.5353 20.4293 61.0816 18.1203 57.2803 16.5448C53.4789 14.9694 49.4044 14.1586 45.2895 14.1586C41.1726 14.1555 37.0955 14.9641 33.2915 16.5381C29.4874 18.1121 26.031 20.4207 23.1199 23.3317C20.2088 26.2428 17.9003 29.6992 16.3262 33.5033C14.7522 37.3074 13.9436 41.3845 13.9467 45.5013V189.268" stroke="black" stroke-linecap="round" stroke-linejoin="round"/>
<path d="M45.2895 3.71881V189.463" stroke="black" stroke-linecap="round" stroke-linejoin="round"/>
<path d="M85.3124 39.4988H5.37834" stroke="black" stroke-linecap="round" stroke-linejoin="round"/>
<path d="M85.3124 64.7272H5.37834" stroke="black" stroke-linecap="round" stroke-linejoin="round"/>
<path d="M85.3124 89.9556H5.37834" stroke="black" stroke-linecap="round" stroke-linejoin="round"/>
<path d="M85.3124 115.19H5.37834" stroke="black" stroke-linecap="round" stroke-linejoin="round"/>
<path d="M85.3124 140.418H5.37834" stroke="black" stroke-linecap="round" stroke-linejoin="round"/>
<path d="M85.3124 165.647H5.37834" stroke="black" stroke-linecap="round" stroke-linejoin="round"/>
<path d="M74.6255 16.3418L67.3753 22.9446" stroke="black" stroke-linecap="round" stroke-linejoin="round"/>
<path d="M16.2653 16.3418L23.5096 22.9446" stroke="black" stroke-linecap="round" stroke-linejoin="round"/>
</g>
<path d="M215.209 247.352H277" stroke="#263238" stroke-linecap="round" stroke-linejoin="round"/>
<path d="M1 247.352H208.736" stroke="#263238" stroke-linecap="round" stroke-linejoin="round"/>
<path d="M122.905 146.682C122.905 146.682 112.382 147.261 108.653 149.356C104.924 151.45 104.226 163.828 104.226 163.828L89.7534 192.331C89.7534 192.331 62.6637 198.938 59.386 199.432C56.1084 199.925 53.8608 199.032 50.9322 199.84C48.0036 200.649 47.8589 201.1 45.6709 203.527C43.4829 205.953 42.5039 208.286 43.3552 208.737C44.2066 209.188 46.2583 207.358 46.8798 206.668C47.6249 205.969 48.4186 205.323 49.2551 204.736C49.2551 204.736 47.6801 209.801 46.982 212.21C45.5177 217.259 44.496 208.217 43.219 209.205C41.5163 210.482 42.7167 217.897 46.9649 217.02C51.2131 216.144 53.3074 216.246 55.0101 214.015C56.7128 211.785 60.3906 206.31 60.3906 206.31C60.3906 206.31 75.5616 205.263 84.2282 204.327C92.8949 203.39 100.591 199.372 103.477 196.588C106.031 194.111 114.689 175.713 114.689 175.713L122.666 154.719C122.666 154.719 124.795 150.309 122.905 146.682Z" fill="white" stroke="#263238" stroke-miterlimit="10" stroke-linecap="round"/>
<path d="M47.5268 214.807C47.0602 215.207 46.5682 215.577 46.054 215.914C45.2733 216.273 44.4395 216.503 43.5851 216.595C41.4142 216.901 40.6309 217.812 41.1588 218.391C41.6866 218.97 42.6316 218.859 44.6322 218.859C46.1296 218.805 47.5778 218.311 48.7953 217.438C49.4273 217.007 49.9998 216.494 50.498 215.914" fill="white"/>
<path d="M47.5268 214.807C47.0602 215.207 46.5682 215.577 46.054 215.914C45.2733 216.273 44.4395 216.503 43.5851 216.595C41.4142 216.901 40.6309 217.812 41.1588 218.391C41.6866 218.97 42.6316 218.859 44.6322 218.859C46.1296 218.805 47.5778 218.311 48.7953 217.438C49.4273 217.007 49.9998 216.494 50.498 215.914" stroke="#263238" stroke-miterlimit="10" stroke-linecap="round"/>
<path d="M49.7062 214.96C49.2934 215.421 48.8527 215.856 48.3866 216.263C47.6999 216.779 46.8952 217.115 46.0454 217.242C44.9557 217.386 43.2786 218.825 43.8745 219.328C44.4704 219.83 45.3984 219.608 47.382 219.328C48.8602 219.083 50.2323 218.404 51.3237 217.378C51.8864 216.877 52.3814 216.304 52.7966 215.675" fill="white"/>
<path d="M49.7062 214.96C49.2934 215.421 48.8527 215.856 48.3866 216.263C47.6999 216.779 46.8952 217.115 46.0454 217.242C44.9557 217.386 43.2786 218.825 43.8745 219.328C44.4704 219.83 45.3984 219.608 47.382 219.328C48.8602 219.083 50.2323 218.404 51.3237 217.378C51.8864 216.877 52.3814 216.304 52.7966 215.675" stroke="#263238" stroke-miterlimit="10" stroke-linecap="round"/>
<path d="M56.1424 202.76C56.1424 202.76 54.312 203.169 53.0605 206.038C51.8091 208.907 52.6519 214.398 51.8431 214.756C51.0057 215.029 50.0974 214.987 49.2891 214.637C48.3186 214.364 46.7351 214.151 47.1267 215.309C47.9184 217.863 52.2943 216.867 52.2943 216.867C52.2943 216.867 52.9584 216.773 54.6015 214.441C56.2446 212.108 59.9138 206.779 59.9138 206.779" fill="white"/>
<path d="M56.1424 202.76C56.1424 202.76 54.312 203.169 53.0605 206.038C51.8091 208.907 52.6519 214.398 51.8431 214.756C51.0057 215.029 50.0974 214.987 49.2891 214.637C48.3186 214.364 46.7351 214.151 47.1267 215.309C47.9184 217.863 52.2943 216.867 52.2943 216.867C52.2943 216.867 52.9584 216.773 54.6015 214.441C56.2446 212.108 59.9138 206.779 59.9138 206.779" stroke="#263238" stroke-miterlimit="10" stroke-linecap="round"/>
<path d="M113.821 174.581L110.756 164.671" stroke="#263238" stroke-miterlimit="10" stroke-linecap="round"/>
<path d="M150.965 146.682C150.965 146.682 161.479 147.261 165.208 149.356C168.937 151.45 169.635 163.828 169.635 163.828L184.108 192.331C184.108 192.331 211.206 198.938 214.484 199.432C217.761 199.925 220.009 199.032 222.937 199.84C225.866 200.649 226.011 201.1 228.199 203.527C230.387 205.953 231.357 208.286 230.514 208.737C229.672 209.188 227.611 207.358 226.981 206.668C226.238 205.966 225.444 205.321 224.606 204.736C224.606 204.736 226.181 209.801 226.879 212.21C228.344 217.259 229.365 208.217 230.651 209.205C232.353 210.482 231.144 217.897 226.905 217.02C222.665 216.144 220.571 216.263 218.868 213.99C217.165 211.717 213.479 206.285 213.479 206.285C213.479 206.285 198.317 205.238 189.641 204.301C180.966 203.365 173.279 199.346 170.401 196.563C167.847 194.085 159.18 175.688 159.18 175.688L151.263 154.719C151.263 154.719 149.058 150.309 150.965 146.682Z" fill="white" stroke="#263238" stroke-miterlimit="10" stroke-linecap="round"/>
<path d="M226.334 214.807C226.803 215.205 227.295 215.575 227.807 215.914C228.591 216.274 229.427 216.504 230.285 216.595C232.456 216.901 233.23 217.812 232.703 218.391C232.175 218.97 231.23 218.859 229.229 218.859C227.734 218.806 226.289 218.311 225.074 217.438C224.442 217.008 223.869 216.495 223.372 215.914" fill="white"/>
<path d="M226.334 214.807C226.803 215.205 227.295 215.575 227.807 215.914C228.591 216.274 229.427 216.504 230.285 216.595C232.456 216.901 233.23 217.812 232.703 218.391C232.175 218.97 231.23 218.859 229.229 218.859C227.734 218.806 226.289 218.311 225.074 217.438C224.442 217.008 223.869 216.495 223.372 215.914" stroke="#263238" stroke-miterlimit="10" stroke-linecap="round"/>
<path d="M224.164 214.96C224.573 215.416 225.011 215.845 225.475 216.246C226.169 216.769 226.982 217.111 227.841 217.242C228.94 217.386 230.608 218.825 230.012 219.328C229.416 219.83 228.488 219.608 226.505 219.328C225.028 219.085 223.658 218.406 222.572 217.378C222.009 216.877 221.514 216.304 221.099 215.675" fill="white"/>
<path d="M224.164 214.96C224.573 215.416 225.011 215.845 225.475 216.246C226.169 216.769 226.982 217.111 227.841 217.242C228.94 217.386 230.608 218.825 230.012 219.328C229.416 219.83 228.488 219.608 226.505 219.328C225.028 219.085 223.658 218.406 222.572 217.378C222.009 216.877 221.514 216.304 221.099 215.675" stroke="#263238" stroke-miterlimit="10" stroke-linecap="round"/>
<path d="M217.727 202.76C217.727 202.76 219.549 203.169 220.809 206.038C222.069 208.907 221.209 214.398 222.018 214.756C222.855 215.029 223.764 214.987 224.572 214.637C225.543 214.364 227.126 214.151 226.743 215.309C225.951 217.863 221.567 216.867 221.567 216.867C221.567 216.867 220.911 216.773 219.268 214.441C217.625 212.108 213.956 206.779 213.956 206.779" fill="white"/>
<path d="M217.727 202.76C217.727 202.76 219.549 203.169 220.809 206.038C222.069 208.907 221.209 214.398 222.018 214.756C222.855 215.029 223.764 214.987 224.572 214.637C225.543 214.364 227.126 214.151 226.743 215.309C225.951 217.863 221.567 216.867 221.567 216.867C221.567 216.867 220.911 216.773 219.268 214.441C217.625 212.108 213.956 206.779 213.956 206.779" stroke="#263238" stroke-miterlimit="10" stroke-linecap="round"/>
<path d="M160.049 174.581L163.105 164.671" stroke="#263238" stroke-miterlimit="10" stroke-linecap="round"/>
<path d="M132.465 132.499C132.465 132.499 131.989 137.922 129.758 141.583C127.527 145.244 122.905 146.691 122.905 146.691L113.821 174.547L118.597 193.353C118.597 193.353 110.152 206.268 106.806 214.075C103.46 221.882 107.478 230.727 110.986 234.388C114.493 238.049 119.142 243.012 131.035 242.552C147.577 241.897 159.334 243.404 164.595 237.189C169.856 230.974 170.418 219.242 164.127 210.388C160.304 204.999 155.102 193.362 155.102 193.362L160.279 173.968L152.37 146.614C152.37 146.614 147.611 146.342 144.708 142.834C141.805 139.327 142.477 132.95 142.477 132.95L132.465 132.499Z" fill="white" stroke="#263238" stroke-miterlimit="10" stroke-linecap="round"/>
<path d="M137.795 139.897C139.551 139.897 141.288 139.541 142.903 138.85C142.486 136.922 142.352 134.943 142.503 132.976L132.457 132.499C132.249 134.418 131.85 136.312 131.265 138.152C133.25 139.298 135.502 139.9 137.795 139.897Z" fill="#263238"/>
<path d="M140.349 92.1198C145.074 92.1198 148.905 88.7352 148.905 84.5599C148.905 80.3847 145.074 77 140.349 77C135.623 77 131.793 80.3847 131.793 84.5599C131.793 88.7352 135.623 92.1198 140.349 92.1198Z" fill="#263238" stroke="#263238" stroke-miterlimit="10" stroke-linecap="round"/>
<path d="M124.684 116.775C124.684 116.775 121.764 114.382 121.764 118.895C121.739 120.164 122.043 121.417 122.648 122.534C123.252 123.65 124.135 124.59 125.212 125.263L124.684 116.775Z" fill="white" stroke="#263238" stroke-miterlimit="10" stroke-linecap="round"/>
<path d="M150.412 116.775C150.412 116.775 153.332 114.382 153.332 118.895C153.357 120.164 153.052 121.417 152.448 122.534C151.844 123.65 150.96 124.59 149.884 125.263L150.412 116.775Z" fill="white" stroke="#263238" stroke-miterlimit="10" stroke-linecap="round"/>
<path d="M139.574 90.1192C139.574 90.1192 127.349 89.2253 123.347 93.8992C119.346 98.573 124.973 118.946 124.973 118.946H151.127C151.127 118.946 154.243 106.116 154.243 99.9011C154.243 93.6863 152.242 90.3405 139.574 90.1192Z" fill="#263238" stroke="#263238" stroke-miterlimit="10" stroke-linecap="round"/>
<path d="M137.795 136.305C136.11 136.305 134.441 135.972 132.884 135.327C131.328 134.682 129.913 133.736 128.723 132.543C127.532 131.351 126.588 129.936 125.945 128.378C125.301 126.82 124.971 125.151 124.973 123.466V103.792C124.973 101.153 127.527 100.565 131.784 98.3432L134.892 96.5639L145.823 99.0157C149.118 99.8671 150.599 101.153 150.599 103.792V123.466C150.602 125.15 150.274 126.818 149.632 128.375C148.99 129.932 148.047 131.347 146.858 132.54C145.669 133.732 144.256 134.678 142.701 135.324C141.146 135.97 139.479 136.303 137.795 136.305Z" fill="white" stroke="#263238" stroke-miterlimit="10" stroke-linecap="round"/>
<path d="M150.446 117.907C150.446 117.907 140.825 116.366 138.314 116.094C135.803 115.821 125.203 118.179 125.203 118.179L124.973 118.946V123.466C124.929 125.177 125.228 126.88 125.853 128.473C126.477 130.067 127.414 131.519 128.608 132.745C129.803 133.971 131.231 134.945 132.808 135.61C134.385 136.275 136.079 136.618 137.79 136.618C139.502 136.618 141.196 136.275 142.773 135.61C144.35 134.945 145.778 133.971 146.972 132.745C148.167 131.519 149.104 130.067 149.728 128.473C150.353 126.88 150.651 125.177 150.607 123.466V118.103L150.446 117.907Z" fill="#519CFF" stroke="#263238" stroke-miterlimit="10" stroke-linecap="round"/>
<path d="M128.268 114.757C129.151 115.345 130.187 115.659 131.248 115.659C132.308 115.659 133.345 115.345 134.228 114.757" stroke="#263238" stroke-miterlimit="10" stroke-linecap="round"/>
<path d="M141.541 114.757C142.422 115.347 143.459 115.663 144.52 115.663C145.581 115.663 146.618 115.347 147.5 114.757" stroke="#263238" stroke-miterlimit="10" stroke-linecap="round"/>
<path d="M127.706 110.952C127.706 110.952 129.256 108.27 134.057 108.687" stroke="#263238" stroke-width="2" stroke-miterlimit="10" stroke-linecap="round"/>
<path d="M140.545 108.687C141.838 108.139 143.284 108.065 144.627 108.479C145.97 108.894 147.123 109.769 147.883 110.952" stroke="#263238" stroke-width="2" stroke-miterlimit="10" stroke-linecap="round"/>
<path d="M106.566 214.212C103.221 222.019 107.239 230.864 110.746 234.525C114.254 238.186 118.902 243.149 130.796 242.689C147.337 242.034 159.094 243.541 164.356 237.326C169.617 231.111 170.179 219.38 163.887 210.526C162.463 208.428 161.164 206.247 159.997 203.996H111.904C109.935 207.298 108.152 210.709 106.566 214.212Z" fill="#263238" stroke="#263238" stroke-miterlimit="10" stroke-linecap="round"/>
<path d="M122.905 146.682C122.905 146.682 126.906 153.995 137.556 153.995C148.522 153.995 150.965 146.691 150.965 146.682C151.306 145.652 158.874 146.461 159.972 146.631C162.586 147.031 166.57 147.593 168.171 150.037C169.235 151.629 173.491 160.679 173.491 160.679L160.279 174.028C160.279 174.028 156.72 189.965 156.984 192.357C157.248 194.749 165.233 211.495 165.233 211.495H107.742L116.256 192.323L114.715 175.688L100.285 163.045C100.285 163.045 103.213 151.867 105.614 150.275C108.015 148.683 118.41 145.235 122.905 146.682Z" fill="#519CFF" stroke="#263238" stroke-miterlimit="10" stroke-linecap="round"/>
<path d="M121.474 184.261C122.539 181.639 123.807 178.174 125.212 173.721Z" fill="#92E3A9"/>
<path d="M121.474 184.261C122.539 181.639 123.807 178.174 125.212 173.721" stroke="#263238" stroke-miterlimit="10" stroke-linecap="round"/>
<path d="M118.112 191.284C119.029 189.773 119.829 188.193 120.504 186.559Z" fill="#92E3A9"/>
<path d="M118.112 191.284C119.029 189.773 119.829 188.193 120.504 186.559" stroke="#263238" stroke-miterlimit="10" stroke-linecap="round"/>
<path d="M146.896 174.836C146.896 174.836 151.008 186.049 153.996 190.161Z" fill="#92E3A9"/>
<path d="M146.896 174.836C146.896 174.836 151.008 186.049 153.996 190.161" stroke="#263238" stroke-miterlimit="10" stroke-linecap="round"/>
<path d="M111.931 160.908L111.378 158.014" stroke="#263238" stroke-miterlimit="10" stroke-linecap="round"/>
<path d="M114.715 175.688L112.476 163.837" stroke="#263238" stroke-miterlimit="10" stroke-linecap="round"/>
<path d="M160.279 173.994L162.969 158.014" stroke="#263238" stroke-miterlimit="10" stroke-linecap="round"/>
<path d="M155.784 199.84C156.286 200.632 156.814 201.398 157.359 202.122Z" fill="#92E3A9"/>
<path d="M155.784 199.84C156.286 200.632 156.814 201.398 157.359 202.122" stroke="#263238" stroke-miterlimit="10" stroke-linecap="round"/>
<path d="M148.385 183.435C149.994 188.535 152.122 193.456 154.736 198.121Z" fill="#92E3A9"/>
<path d="M148.385 183.435C149.994 188.535 152.122 193.456 154.736 198.121" stroke="#263238" stroke-miterlimit="10" stroke-linecap="round"/>
<path d="M127.085 173.346C127.085 173.346 124.088 183.06 122.973 186.049Z" fill="#92E3A9"/>
<path d="M127.085 173.346C127.085 173.346 124.088 183.06 122.973 186.049" stroke="#263238" stroke-miterlimit="10" stroke-linecap="round"/>
<path d="M132.882 229.884C124.488 221.183 109.258 216.833 101.8 215.59C94.3421 214.347 80.6866 206.898 80.6866 206.898C80.6866 206.898 72.6073 206.626 73.2288 216.263C73.8503 225.9 97.1601 237.087 106.167 242.058C110.225 244.338 114.769 245.611 119.421 245.773C124.072 245.934 128.694 244.979 132.899 242.986" fill="#263238"/>
<path d="M132.882 229.884C124.488 221.183 109.258 216.833 101.8 215.59C94.3421 214.347 80.6866 206.898 80.6866 206.898C80.6866 206.898 72.6073 206.626 73.2288 216.263C73.8503 225.9 97.1601 237.087 106.167 242.058C110.225 244.338 114.769 245.611 119.421 245.773C124.072 245.934 128.694 244.979 132.899 242.986" stroke="#263238" stroke-miterlimit="10" stroke-linecap="round"/>
<path d="M138.144 230.233C146.538 221.533 161.76 217.182 169.218 215.939C176.675 214.696 188.288 208.337 188.288 208.337C188.288 208.337 198.436 206.898 197.814 216.561C197.193 226.223 173.883 237.376 164.867 242.348C160.812 244.628 156.269 245.904 151.619 246.066C146.97 246.229 142.349 245.275 138.144 243.284" fill="#263238"/>
<path d="M138.144 230.233C146.538 221.533 161.76 217.182 169.218 215.939C176.675 214.696 188.288 208.337 188.288 208.337C188.288 208.337 198.436 206.898 197.814 216.561C197.193 226.223 173.883 237.376 164.867 242.348C160.812 244.628 156.269 245.904 151.619 246.066C146.97 246.229 142.349 245.275 138.144 243.284" stroke="#263238" stroke-miterlimit="10" stroke-linecap="round"/>
<path d="M172.742 238.083C172.742 238.083 173.594 236.993 172.461 235.35C171.329 233.707 168.877 236.107 166.868 236.763C164.859 237.419 156.967 239.172 153.196 239.99C149.977 240.688 144.98 240.722 143.499 240.969C144.042 243.266 143.9 245.673 143.09 247.89C142.366 247.933 144.588 247.83 143.839 247.89C150.395 247.601 154.149 247.533 156.175 247.32C159.879 246.92 164.689 248.597 168.426 247.175C172.163 245.753 174.837 242.067 174.3 240.424C174.046 239.496 173.5 238.675 172.742 238.083Z" fill="white" stroke="#263238" stroke-miterlimit="10" stroke-linecap="round"/>
<path d="M143.277 241.003H143.482" stroke="#263238" stroke-miterlimit="10" stroke-linecap="round"/>
<path d="M143.099 241.037H143.192" stroke="#263238" stroke-miterlimit="10" stroke-linecap="round"/>
<path d="M172.742 238.083C171.74 238.614 170.655 238.974 169.533 239.147" stroke="#263238" stroke-miterlimit="10" stroke-linecap="round"/>
<path d="M174.3 240.398C172.92 240.977 171.497 241.447 170.044 241.803" stroke="#263238" stroke-miterlimit="10" stroke-linecap="round"/>
<path d="M169.873 243.642C171.049 243.869 172.267 243.683 173.321 243.114" stroke="#263238" stroke-miterlimit="10" stroke-linecap="round"/>
<path d="M168.835 245.293C169.923 245.443 171.031 245.265 172.019 244.783" stroke="#263238" stroke-miterlimit="10" stroke-linecap="round"/>
<path d="M142.692 247.54C143.502 245.322 143.644 242.916 143.1 240.618L142.7 240.686C142.7 240.686 128.227 237.613 115.968 230.13C103.709 222.646 88.1461 211.136 80.2797 206.547C72.4133 201.959 64.9556 208.854 65.7047 216.142C66.4539 223.429 72.4133 227.269 83.1573 231.679C93.9012 236.089 113.474 243.002 123.826 245.105C129.172 246.177 136.732 247.837 142.692 247.54Z" fill="#263238" stroke="#919191" stroke-miterlimit="10" stroke-linecap="round"/>
<path d="M121.138 247.359C120.264 245.156 120.083 242.738 120.618 240.429L121.036 240.497C121.036 240.497 135.943 237.364 148.687 229.89C161.432 222.415 181.634 211.16 189.799 206.537C191.391 205.562 193.225 205.053 195.092 205.068C196.959 205.083 198.785 205.622 200.361 206.624C201.937 207.625 203.201 209.049 204.008 210.733C204.815 212.416 205.133 214.293 204.927 216.149C204.127 223.445 197.954 227.276 186.81 231.686C175.666 236.096 151.275 242.753 140.523 244.873C134.972 245.946 127.31 247.649 121.138 247.359Z" fill="#263238" stroke="#999999" stroke-miterlimit="10" stroke-linecap="round"/>
<path d="M121.083 240.543C121.083 240.543 106.772 238.755 102.234 237.546C97.6965 236.337 94.6913 233.443 93.2099 234.243C91.7286 235.043 92.9545 237.052 92.9545 237.052C92.9545 237.052 91.9499 239.538 92.9545 241.173C93.9591 242.808 95.4149 244.374 100.463 247.013C105.512 249.652 111.48 248.639 114.638 248.503C116.983 248.341 119.313 248.011 121.611 247.515C121.611 247.515 120.385 245.064 121.083 240.543Z" fill="white" stroke="#263238" stroke-miterlimit="10" stroke-linecap="round"/>
<path d="M92.9715 237.01C93.3451 236.862 93.7537 236.827 94.147 236.909C94.5402 236.991 94.901 237.186 95.185 237.47C95.8487 238.111 96.645 238.599 97.5177 238.9" stroke="#263238" stroke-miterlimit="10" stroke-linecap="round"/>
<path d="M92.5373 239.998C92.8405 239.83 93.1796 239.737 93.5262 239.726C93.8728 239.716 94.2168 239.789 94.5295 239.939C95.2415 240.3 95.9968 240.569 96.777 240.739" stroke="#263238" stroke-miterlimit="10" stroke-linecap="round"/>
<path d="M94.4528 242.918C94.4528 242.918 94.8955 242.203 95.4149 242.305C95.9342 242.407 98.054 243.157 98.6329 243.216" stroke="#263238" stroke-miterlimit="10" stroke-linecap="round"/>
<path d="M97.2112 245.055C97.5421 244.759 97.9607 244.58 98.4031 244.544C99.0172 244.589 99.6283 244.669 100.233 244.783" stroke="#263238" stroke-miterlimit="10" stroke-linecap="round"/>
</svg>
