<svg width="278" height="248" viewBox="0 0 278 248" fill="none" xmlns="http://www.w3.org/2000/svg">
<path d="M236.065 145.444C236.065 145.444 236.065 143.166 239.26 139.971C242.456 136.776 244.51 134.951 244.51 134.951C244.51 134.951 246.104 140.2 243.138 143.39C240.961 145.637 238.598 147.699 236.077 149.552L236.065 145.444Z" fill="#92C4E3"/>
<path d="M240.702 159.697C240.702 159.697 240.702 157.414 243.898 154.218C247.093 151.023 249.141 149.198 249.141 149.198C249.141 149.198 250.742 154.448 247.776 157.643C245.598 159.891 243.236 161.952 240.714 163.805L240.702 159.697Z" fill="#92C4E3"/>
<path d="M236.265 149.334C236.265 149.334 236.024 147.062 232.51 144.226C228.997 141.389 226.761 139.789 226.761 139.789C226.761 139.789 225.731 145.173 229.015 148.027C231.423 150.03 233.994 151.829 236.7 153.406L236.265 149.334Z" fill="#92C4E3"/>
<path d="M241.867 166.141C241.867 166.141 241.391 163.911 237.595 161.433C233.799 158.956 231.416 157.626 231.416 157.626C231.416 157.626 230.951 163.093 234.523 165.594C237.126 167.334 239.87 168.854 242.727 170.137L241.867 166.141Z" fill="#92C4E3"/>
<path d="M240.814 184.508C240.814 184.508 240.814 182.224 237.618 179.029C234.423 175.833 232.375 174.009 232.375 174.009C232.375 174.009 230.774 179.258 233.74 182.454C235.918 184.701 238.28 186.762 240.802 188.615L240.814 184.508Z" fill="#92C4E3"/>
<path d="M240.867 188.986C240.867 188.986 240.543 186.726 243.221 183.101C245.899 179.476 247.705 177.387 247.705 177.387C247.705 177.387 250.059 182.354 247.546 185.938C245.706 188.472 243.657 190.848 241.42 193.041L240.867 188.986Z" fill="#92C4E3"/>
<path d="M244.045 202.256C244.045 202.256 244.045 199.973 240.849 196.783C237.654 193.594 235.606 191.764 235.606 191.764C235.606 191.764 234.005 197.007 236.971 200.203C239.149 202.45 241.511 204.511 244.033 206.364L244.045 202.256Z" fill="#92C4E3"/>
<path d="M241.885 214.291C241.885 214.291 242.474 212.084 240.178 208.182C237.883 204.281 236.394 201.997 236.394 201.997C236.394 201.997 233.517 206.67 235.576 210.513C237.124 213.239 238.895 215.831 240.873 218.263L241.885 214.291Z" fill="#92C4E3"/>
<path d="M235.806 144.861C235.97 147.229 236.262 149.587 236.683 151.923C237.942 158.444 241.102 162.657 242.362 168.548C243.621 174.439 240.008 182.03 240.973 189.598C241.938 197.166 244.886 201.368 244.045 206.429C243.203 211.49 238.748 225.178 238.748 225.178" stroke="#263238" stroke-linecap="round" stroke-linejoin="round"/>
<path d="M236.3 150.846L232.858 148.21" stroke="#263238" stroke-linecap="round" stroke-linejoin="round"/>
<path d="M236.135 147.804L237.577 145.244" stroke="#263238" stroke-linecap="round" stroke-linejoin="round"/>
<path d="M242.144 168.301C242.144 168.301 239.26 166.141 236.3 163.975" stroke="#263238" stroke-linecap="round" stroke-linejoin="round"/>
<path d="M240.702 163.787C242.139 161.009 243.854 158.385 245.822 155.954" stroke="#263238" stroke-linecap="round" stroke-linejoin="round"/>
<path d="M240.702 187.75C239.056 184.72 236.978 181.945 234.535 179.511" stroke="#263238" stroke-linecap="round" stroke-linejoin="round"/>
<path d="M241.261 190.957C242.137 188.899 243.182 186.917 244.386 185.031C246.063 182.548 246.305 182.23 246.305 182.23" stroke="#263238" stroke-linecap="round" stroke-linejoin="round"/>
<path d="M244.045 206.452C243.316 204.638 242.448 202.883 241.45 201.203C240.453 199.645 239.329 198.173 238.089 196.801" stroke="#263238" stroke-linecap="round" stroke-linejoin="round"/>
<path d="M240.843 218.263C241.009 216.531 240.71 214.786 239.978 213.208C238.801 210.889 237.418 207.847 236.859 206.646" stroke="#263238" stroke-linecap="round" stroke-linejoin="round"/>
<path d="M256.991 175.927C256.991 175.927 257.244 174.497 255.585 172.144C253.925 169.79 252.843 168.43 252.843 168.43C252.843 168.43 251.271 171.543 252.784 173.874C253.907 175.519 255.167 177.066 256.55 178.499L256.991 175.927Z" fill="#92C4E3"/>
<path d="M252.531 184.384C252.531 184.384 252.778 182.948 251.118 180.6C249.459 178.252 248.376 176.887 248.376 176.887C248.376 176.887 246.805 180 248.317 182.324C249.441 183.971 250.701 185.52 252.084 186.956L252.531 184.384Z" fill="#92C4E3"/>
<path d="M256.432 178.34C256.432 178.34 256.833 176.946 259.345 175.545C261.858 174.144 263.429 173.385 263.429 173.385C263.429 173.385 263.494 176.881 261.123 178.317C259.395 179.311 257.588 180.159 255.72 180.853L256.432 178.34Z" fill="#92C4E3"/>
<path d="M251.107 188.286C251.107 188.286 251.648 186.938 254.296 185.814C256.944 184.69 258.586 184.096 258.586 184.096C258.586 184.096 258.28 187.574 255.773 188.751C253.95 189.56 252.062 190.216 250.13 190.71L251.107 188.286Z" fill="#92C4E3"/>
<path d="M249.765 199.902C249.765 199.902 250.012 198.472 252.36 196.819C254.708 195.165 256.197 194.241 256.197 194.241C256.197 194.241 256.627 197.701 254.432 199.385C252.821 200.558 251.114 201.593 249.329 202.48L249.765 199.902Z" fill="#92C4E3"/>
<path d="M249.247 202.71C249.247 202.71 249.694 201.327 248.388 198.767C247.081 196.207 246.199 194.694 246.199 194.694C246.199 194.694 244.198 197.56 245.369 200.073C246.246 201.863 247.271 203.575 248.435 205.193L249.247 202.71Z" fill="#92C4E3"/>
<path d="M245.222 214.25C245.222 214.25 245.057 212.808 242.809 211.019C240.561 209.23 239.125 208.224 239.125 208.224C239.125 208.224 238.495 211.66 240.602 213.461C242.144 214.725 243.79 215.857 245.522 216.845L245.222 214.25Z" fill="#92C4E3"/>
<path d="M245.81 210.689C245.81 210.689 246.057 209.259 248.411 207.6C250.765 205.94 252.242 205.022 252.242 205.022C252.242 205.022 252.678 208.488 250.477 210.166C248.864 211.339 247.156 212.375 245.369 213.261L245.81 210.689Z" fill="#92C4E3"/>
<path d="M245.857 218.463C245.857 218.463 245.74 217.016 247.593 214.821C249.447 212.625 250.648 211.354 250.648 211.354C250.648 211.354 251.942 214.597 250.236 216.78C248.973 218.323 247.583 219.759 246.081 221.07L245.857 218.463Z" fill="#92C4E3"/>
<path d="M257.227 175.592C256.867 177.065 256.427 178.516 255.909 179.941C254.408 183.89 251.972 186.191 250.542 189.745C249.112 193.3 250.542 198.461 249.129 203.098C247.717 207.735 245.392 210.06 245.375 213.32C245.357 216.58 246.64 225.631 246.64 225.631" stroke="#263238" stroke-linecap="round" stroke-linejoin="round"/>
<path d="M256.25 179.288L258.698 178.005" stroke="#263238" stroke-linecap="round" stroke-linejoin="round"/>
<path d="M256.68 177.399L256.056 175.633" stroke="#263238" stroke-linecap="round" stroke-linejoin="round"/>
<path d="M250.689 189.598C250.689 189.598 252.731 188.556 254.808 187.521" stroke="#263238" stroke-linecap="round" stroke-linejoin="round"/>
<path d="M252.083 186.932C251.488 185.034 250.699 183.202 249.73 181.465" stroke="#263238" stroke-linecap="round" stroke-linejoin="round"/>
<path d="M249.482 201.95C250.845 200.229 252.448 198.712 254.243 197.448" stroke="#263238" stroke-linecap="round" stroke-linejoin="round"/>
<path d="M248.782 203.898C248.457 202.513 248.018 201.157 247.47 199.844C246.687 198.108 246.569 197.878 246.569 197.878" stroke="#263238" stroke-linecap="round" stroke-linejoin="round"/>
<path d="M245.487 215.792C244.692 214.806 243.812 213.892 242.856 213.061C242.247 212.612 241.677 212.114 241.149 211.572" stroke="#263238" stroke-linecap="round" stroke-linejoin="round"/>
<path d="M245.375 213.32C246.029 212.261 246.763 211.254 247.57 210.307C248.366 209.439 249.232 208.638 250.159 207.912" stroke="#263238" stroke-linecap="round" stroke-linejoin="round"/>
<path d="M246.081 221.07C246.162 219.966 246.538 218.903 247.17 217.992C248.176 216.668 249.359 214.909 249.841 214.214" stroke="#263238" stroke-linecap="round" stroke-linejoin="round"/>
<path d="M236.683 247.352H250.018C250.296 247.352 250.562 247.242 250.759 247.045C250.955 246.849 251.065 246.582 251.065 246.305L254.373 224.225H232.328L235.635 246.305C235.635 246.582 235.746 246.849 235.942 247.045C236.139 247.242 236.405 247.352 236.683 247.352Z" fill="#263238" stroke="#263238" stroke-linecap="round" stroke-linejoin="round"/>
<path d="M34.4672 145.444C34.4672 145.444 34.4672 143.166 31.2717 139.971C28.0763 136.776 26.0283 134.951 26.0283 134.951C26.0283 134.951 24.4276 140.2 27.3936 143.39C29.5714 145.637 31.9336 147.699 34.4555 149.552L34.4672 145.444Z" fill="#92C4E3"/>
<path d="M29.8359 159.697C29.8359 159.697 29.8359 157.414 26.6463 154.218C23.4567 151.023 21.397 149.198 21.397 149.198C21.397 149.198 19.8022 154.448 22.7681 157.643C24.949 159.884 27.3131 161.939 29.8359 163.787V159.697Z" fill="#92C4E3"/>
<path d="M34.2671 149.334C34.2671 149.334 34.5084 147.062 38.0217 144.226C41.535 141.389 43.7712 139.789 43.7712 139.789C43.7712 139.789 44.8069 145.173 41.5173 148.027C39.1098 150.031 36.539 151.831 33.8317 153.406L34.2671 149.334Z" fill="#92C4E3"/>
<path d="M28.6589 166.141C28.6589 166.141 29.1414 163.911 32.9313 161.433C36.7211 158.956 39.1163 157.626 39.1163 157.626C39.1163 157.626 39.5753 163.093 36.0091 165.594C33.3941 167.335 30.6383 168.855 27.7703 170.137L28.6589 166.141Z" fill="#92C4E3"/>
<path d="M29.7181 184.508C29.7181 184.508 29.7181 182.224 32.9136 179.029C36.1091 175.833 38.1629 174.009 38.1629 174.009C38.1629 174.009 39.7577 179.258 36.7917 182.454C34.614 184.701 32.2518 186.762 29.7299 188.615L29.7181 184.508Z" fill="#92C4E3"/>
<path d="M29.6652 188.986C29.6652 188.986 29.9889 186.726 27.3112 183.101C24.6336 179.476 22.8329 177.387 22.8329 177.387C22.8329 177.387 20.4789 182.354 22.9859 185.938C24.8264 188.472 26.8756 190.848 29.112 193.041L29.6652 188.986Z" fill="#92C4E3"/>
<path d="M26.5168 202.256C26.5168 202.256 26.5168 199.973 29.7123 196.783C32.9077 193.594 34.9616 191.764 34.9616 191.764C34.9616 191.764 36.5564 197.007 33.5904 200.203C31.4126 202.45 29.0504 204.511 26.5286 206.364L26.5168 202.256Z" fill="#92C4E3"/>
<path d="M28.6589 214.291C28.6589 214.291 28.0704 212.084 30.3596 208.182C32.6488 204.281 34.1671 201.997 34.1671 201.997C34.1671 201.997 37.0389 206.67 34.9792 210.513C33.4344 213.24 31.6627 215.833 29.6828 218.263L28.6589 214.291Z" fill="#92C4E3"/>
<path d="M34.7556 144.861C34.5938 147.229 34.303 149.587 33.8846 151.923C32.6194 158.444 29.4651 162.657 28.1998 168.548C26.9346 174.439 30.5538 182.03 29.5945 189.598C28.6353 197.166 25.6752 201.368 26.5168 206.429C27.3583 211.49 31.7778 225.154 31.7778 225.154" stroke="#263238" stroke-linecap="round" stroke-linejoin="round"/>
<path d="M34.2377 150.846L37.6804 148.21" stroke="#263238" stroke-linecap="round" stroke-linejoin="round"/>
<path d="M34.3966 147.804L32.9548 145.244" stroke="#263238" stroke-linecap="round" stroke-linejoin="round"/>
<path d="M28.3941 168.301C28.3941 168.301 31.2718 166.141 34.2377 163.975" stroke="#263238" stroke-linecap="round" stroke-linejoin="round"/>
<path d="M29.8358 163.787C28.3992 161.009 26.6838 158.385 24.716 155.954" stroke="#263238" stroke-linecap="round" stroke-linejoin="round"/>
<path d="M29.8358 187.75C31.479 184.719 33.5545 181.944 35.9973 179.511" stroke="#263238" stroke-linecap="round" stroke-linejoin="round"/>
<path d="M29.2474 190.957C28.3725 188.9 27.3293 186.918 26.1284 185.031C24.4453 182.548 24.204 182.23 24.204 182.23" stroke="#263238" stroke-linecap="round" stroke-linejoin="round"/>
<path d="M26.5168 206.452C27.2455 204.638 28.1132 202.883 29.112 201.203C30.1086 199.645 31.2325 198.173 32.4723 196.801" stroke="#263238" stroke-linecap="round" stroke-linejoin="round"/>
<path d="M29.6887 218.263C29.5253 216.535 29.8238 214.795 30.5538 213.22C31.7308 210.901 33.1137 207.859 33.6728 206.658" stroke="#263238" stroke-linecap="round" stroke-linejoin="round"/>
<path d="M13.5524 175.927C13.5524 175.927 13.3053 174.497 14.9589 172.144C16.6126 169.79 17.7071 168.43 17.7071 168.43C17.7071 168.43 19.2784 171.543 17.766 173.874C16.6427 175.519 15.3828 177.066 13.9997 178.499L13.5524 175.927Z" fill="#92C4E3"/>
<path d="M18.0073 184.384C18.0073 184.384 17.7601 182.948 19.4138 180.6C21.0674 178.252 22.1855 176.863 22.1855 176.863C22.1855 176.863 23.7568 179.976 22.2385 182.301C21.1145 183.947 19.8547 185.496 18.4722 186.932L18.0073 184.384Z" fill="#92C4E3"/>
<path d="M14.0997 178.34C14.0997 178.34 13.6995 176.946 11.1926 175.545C8.68565 174.144 7.10262 173.385 7.10262 173.385C7.10262 173.385 7.03789 176.881 9.41537 178.317C11.1425 179.311 12.9496 180.159 14.8177 180.853L14.0997 178.34Z" fill="#92C4E3"/>
<path d="M19.4373 188.286C19.4373 188.286 18.8959 186.938 16.2536 185.814C13.6113 184.69 11.9635 184.096 11.9635 184.096C11.9635 184.096 12.2636 187.574 14.7765 188.751C16.5994 189.561 18.4873 190.216 20.4201 190.71L19.4373 188.286Z" fill="#92C4E3"/>
<path d="M20.7673 199.902C20.7673 199.902 20.5201 198.472 18.172 196.819C15.824 195.165 14.3351 194.241 14.3351 194.241C14.3351 194.241 13.9055 197.701 16.1006 199.385C17.7115 200.558 19.4183 201.593 21.2027 202.48L20.7673 199.902Z" fill="#92C4E3"/>
<path d="M21.291 202.71C21.291 202.71 20.8379 201.327 22.1443 198.767C23.4508 196.207 24.3335 194.694 24.3335 194.694C24.3335 194.694 26.3343 197.56 25.1691 200.073C24.2891 201.862 23.2616 203.575 22.0972 205.193L21.291 202.71Z" fill="#92C4E3"/>
<path d="M25.2986 214.25C25.2986 214.25 25.4634 212.808 27.7173 211.019C29.9712 209.23 31.3953 208.224 31.3953 208.224C31.3953 208.224 32.025 211.66 29.9182 213.461C28.3761 214.725 26.7303 215.857 24.9985 216.845L25.2986 214.25Z" fill="#92C4E3"/>
<path d="M24.7042 210.689C24.7042 210.689 24.4571 209.259 22.109 207.6C19.7609 205.94 18.2721 205.022 18.2721 205.022C18.2721 205.022 17.8425 208.488 20.0375 210.166C21.6448 211.338 23.3475 212.373 25.1279 213.261L24.7042 210.689Z" fill="#92C4E3"/>
<path d="M24.6748 218.463C24.6748 218.463 24.7984 217.016 22.9447 214.821C21.0909 212.625 19.8845 211.354 19.8845 211.354C19.8845 211.354 18.5899 214.597 20.2965 216.78C21.5594 218.323 22.9492 219.759 24.4512 221.07L24.6748 218.463Z" fill="#92C4E3"/>
<path d="M13.3053 175.592C13.6655 177.065 14.1056 178.516 14.6235 179.941C16.1241 183.89 18.5604 186.191 19.9905 189.745C21.4205 193.3 19.9905 198.461 21.4028 203.098C22.8152 207.735 25.1397 210.06 25.1574 213.32C25.175 216.58 23.8921 225.631 23.8921 225.631" stroke="#263238" stroke-linecap="round" stroke-linejoin="round"/>
<path d="M14.2822 179.288L11.8399 178.005" stroke="#263238" stroke-linecap="round" stroke-linejoin="round"/>
<path d="M13.8526 177.399L14.4764 175.633" stroke="#263238" stroke-linecap="round" stroke-linejoin="round"/>
<path d="M19.8316 189.598C19.8316 189.598 17.7895 188.556 15.7122 187.521" stroke="#263238" stroke-linecap="round" stroke-linejoin="round"/>
<path d="M18.4486 186.932C19.0445 185.034 19.8332 183.202 20.8026 181.465" stroke="#263238" stroke-linecap="round" stroke-linejoin="round"/>
<path d="M21.0497 201.95C19.6911 200.229 18.0917 198.713 16.3006 197.448" stroke="#263238" stroke-linecap="round" stroke-linejoin="round"/>
<path d="M21.75 203.898C22.0753 202.513 22.5142 201.157 23.0624 199.844C23.8509 198.108 23.9627 197.878 23.9627 197.878" stroke="#263238" stroke-linecap="round" stroke-linejoin="round"/>
<path d="M25.0515 215.792C25.8435 214.805 26.7218 213.891 27.6761 213.061C28.2857 212.611 28.8583 212.113 29.3886 211.572" stroke="#263238" stroke-linecap="round" stroke-linejoin="round"/>
<path d="M25.1574 213.32C24.5033 212.261 23.7695 211.254 22.9623 210.307C22.1689 209.442 21.3047 208.645 20.3789 207.923" stroke="#263238" stroke-linecap="round" stroke-linejoin="round"/>
<path d="M24.4512 221.07C24.3696 219.966 23.9937 218.903 23.3625 217.992C22.3562 216.668 21.1733 214.909 20.6908 214.214" stroke="#263238" stroke-linecap="round" stroke-linejoin="round"/>
<path d="M33.8493 247.352H20.5142C20.2364 247.352 19.97 247.242 19.7735 247.045C19.5771 246.849 19.4667 246.582 19.4667 246.305L16.1594 224.225H38.2041L34.8968 246.305C34.8968 246.582 34.7865 246.849 34.59 247.045C34.3936 247.242 34.1271 247.352 33.8493 247.352Z" fill="#263238" stroke="#263238" stroke-linecap="round" stroke-linejoin="round"/>
<g opacity="0.3">
<path d="M269.085 189.68H188.18V43.1474C188.18 32.6903 192.334 22.6615 199.728 15.2672C207.122 7.87288 217.151 3.71882 227.608 3.71882C238.604 3.71882 249.149 8.0868 256.924 15.8618C264.699 23.6369 269.067 34.1821 269.067 45.1777V189.68H269.085Z" stroke="black" stroke-linecap="round" stroke-linejoin="round"/>
<path d="M259.934 189.245V45.5013C259.934 41.3884 259.124 37.3158 257.55 33.516C255.976 29.7161 253.669 26.2635 250.761 23.3553C247.852 20.447 244.4 18.1401 240.6 16.5661C236.8 14.9922 232.728 14.1821 228.615 14.1821C220.311 14.1868 212.35 17.4885 206.48 23.3615C200.61 29.2345 197.313 37.198 197.313 45.5013V189.268" stroke="black" stroke-linecap="round" stroke-linejoin="round"/>
<path d="M228.632 3.71881V189.463" stroke="black" stroke-linecap="round" stroke-linejoin="round"/>
<path d="M268.649 39.4988H188.721" stroke="black" stroke-linecap="round" stroke-linejoin="round"/>
<path d="M268.649 64.7272H188.721" stroke="black" stroke-linecap="round" stroke-linejoin="round"/>
<path d="M268.649 89.9556H188.721" stroke="black" stroke-linecap="round" stroke-linejoin="round"/>
<path d="M268.649 115.19H188.721" stroke="black" stroke-linecap="round" stroke-linejoin="round"/>
<path d="M268.649 140.418H188.721" stroke="black" stroke-linecap="round" stroke-linejoin="round"/>
<path d="M268.649 165.647H188.721" stroke="black" stroke-linecap="round" stroke-linejoin="round"/>
<path d="M257.962 16.3418L250.718 22.9446" stroke="black" stroke-linecap="round" stroke-linejoin="round"/>
<path d="M199.602 16.3418L206.852 22.9446" stroke="black" stroke-linecap="round" stroke-linejoin="round"/>
</g>
<path d="M140.954 32.6135H133.239C132.851 32.613 132.47 32.5146 132.13 32.3274C131.791 32.1401 131.504 31.8701 131.297 31.5424C129.614 28.8825 125.471 21.9795 126.053 19.0842C126.848 15.2002 137.599 8.20307 137.599 8.20307C137.599 8.20307 147.451 15.0942 148.157 18.7546C148.745 21.6971 144.585 28.806 142.908 31.5248C142.701 31.8574 142.414 32.132 142.072 32.3225C141.73 32.513 141.345 32.6131 140.954 32.6135Z" stroke="#999999" stroke-linecap="round" stroke-linejoin="round"/>
<path d="M138.317 31.3423L131.644 35.2028C131.308 35.3962 130.928 35.5013 130.54 35.5085C130.152 35.5157 129.769 35.4247 129.425 35.244C126.636 33.7904 119.598 29.877 118.656 27.0817C117.397 23.3213 123.211 11.8811 123.211 11.8811C123.211 11.8811 135.192 12.9227 137.635 15.7475C139.606 18.0249 139.565 26.2343 139.471 29.4298C139.458 29.8207 139.346 30.2018 139.144 30.5367C138.942 30.8716 138.657 31.149 138.317 31.3423Z" stroke="#999999" stroke-linecap="round" stroke-linejoin="round"/>
<path d="M135.398 31.566L131.544 38.2453C131.353 38.5857 131.08 38.8722 130.748 39.078C130.417 39.2839 130.039 39.4023 129.649 39.4223C126.501 39.5576 118.468 39.693 116.237 37.7333C113.295 35.1087 112.583 22.2914 112.583 22.2914C112.583 22.2914 123.476 17.2069 127.001 18.431C129.849 19.4196 133.921 26.5521 135.434 29.365C135.614 29.7051 135.705 30.0852 135.699 30.47C135.693 30.8548 135.589 31.2318 135.398 31.566Z" stroke="#999999" stroke-linecap="round" stroke-linejoin="round"/>
<path d="M132.986 33.2196V40.9288C132.985 41.3165 132.887 41.6978 132.7 42.0373C132.512 42.3768 132.242 42.6635 131.915 42.8708C129.255 44.5597 122.352 48.7027 119.456 48.1142C115.572 47.3256 108.575 36.5681 108.575 36.5681C108.575 36.5681 115.466 26.7168 119.127 26.0165C122.069 25.4281 129.178 29.5886 131.897 31.2658C132.23 31.472 132.504 31.7597 132.695 32.1015C132.885 32.4434 132.985 32.8282 132.986 33.2196Z" stroke="#999999" stroke-linecap="round" stroke-linejoin="round"/>
<path d="M131.715 35.856L135.575 42.5589C135.768 42.8943 135.873 43.2731 135.88 43.66C135.887 44.0468 135.796 44.4292 135.616 44.7716C134.163 47.5669 130.249 54.6052 127.454 55.5409C123.693 56.8003 112.253 50.986 112.253 50.986C112.253 50.986 113.295 39.0103 116.114 36.5681C118.397 34.5908 126.606 34.6379 129.802 34.732C130.19 34.7414 130.569 34.8495 130.904 35.0462C131.239 35.2428 131.518 35.5216 131.715 35.856Z" stroke="#999999" stroke-linecap="round" stroke-linejoin="round"/>
<path d="M131.938 38.7749L138.618 42.6295C138.958 42.8196 139.245 43.0933 139.451 43.4248C139.657 43.7563 139.775 44.1347 139.794 44.5244C139.93 47.6728 140.059 55.7057 138.106 57.936C135.481 60.9079 122.664 61.5905 122.664 61.5905C122.664 61.5905 117.579 50.6977 118.803 47.1667C119.786 44.3185 126.924 40.252 129.737 38.7396C130.077 38.5595 130.457 38.4684 130.842 38.4745C131.227 38.4807 131.604 38.584 131.938 38.7749Z" stroke="#999999" stroke-linecap="round" stroke-linejoin="round"/>
<path d="M133.592 41.1877H141.301C141.689 41.1882 142.07 41.2866 142.41 41.4738C142.749 41.6611 143.036 41.9311 143.243 42.2588C144.932 44.9128 149.075 51.8217 148.486 54.7111C147.698 58.601 136.94 65.5981 136.94 65.5981C136.94 65.5981 127.089 58.707 126.389 55.0407C125.8 52.0983 129.961 44.9893 131.638 42.2764C131.844 41.9438 132.132 41.6692 132.474 41.4787C132.816 41.2882 133.2 41.188 133.592 41.1877Z" stroke="#999999" stroke-linecap="round" stroke-linejoin="round"/>
<path d="M136.228 42.453L142.908 38.5984C143.243 38.4046 143.621 38.2987 144.008 38.2905C144.395 38.2823 144.777 38.372 145.12 38.5513C147.916 40.0107 154.954 43.9183 155.89 46.7195C157.149 50.4799 151.335 61.9201 151.335 61.9201C151.335 61.9201 139.359 60.8726 136.917 58.0537C134.939 55.7763 134.987 47.5669 135.081 44.3714C135.093 43.9805 135.205 43.5991 135.406 43.2635C135.607 42.9278 135.89 42.6488 136.228 42.453Z" stroke="#999999" stroke-linecap="round" stroke-linejoin="round"/>
<path d="M139.141 42.2352L143.002 35.55C143.196 35.2155 143.471 34.9354 143.803 34.7358C144.134 34.5362 144.51 34.4236 144.897 34.4084C148.045 34.273 156.078 34.1377 158.308 36.0914C161.28 38.722 161.963 51.5333 161.963 51.5333C161.963 51.5333 151.064 56.6178 147.533 55.3997C144.685 54.411 140.618 47.2785 139.1 44.4656C138.917 44.121 138.824 43.7353 138.831 43.3451C138.839 42.9548 138.945 42.5728 139.141 42.2352Z" stroke="#999999" stroke-linecap="round" stroke-linejoin="round"/>
<path d="M141.56 40.5816V32.8665C141.561 32.4797 141.659 32.0994 141.847 31.7609C142.034 31.4224 142.304 31.1367 142.631 30.9304C145.285 29.2414 152.194 25.0985 155.083 25.687C158.973 26.4756 165.97 37.2272 165.97 37.2272C165.97 37.2272 159.079 47.0785 155.413 47.7846C152.47 48.3731 145.362 44.2125 142.643 42.5354C142.312 42.328 142.038 42.04 141.849 41.6983C141.66 41.3565 141.56 40.9723 141.56 40.5816Z" stroke="#999999" stroke-linecap="round" stroke-linejoin="round"/>
<path d="M142.825 37.9452L138.971 31.2658C138.777 30.9298 138.671 30.5504 138.663 30.1626C138.655 29.7748 138.744 29.3912 138.924 29.0473C140.383 26.2578 144.29 19.2195 147.092 18.278C150.852 17.0186 162.292 22.8387 162.292 22.8387C162.292 22.8387 161.245 34.8144 158.426 37.2625C156.148 39.2339 147.933 39.1928 144.744 39.0986C144.352 39.0855 143.97 38.9728 143.635 38.7709C143.299 38.5691 143.02 38.2848 142.825 37.9452Z" stroke="#999999" stroke-linecap="round" stroke-linejoin="round"/>
<path d="M142.607 35.0263L135.922 31.1717C135.588 30.9772 135.308 30.7016 135.109 30.3704C134.909 30.0392 134.796 29.6631 134.781 29.2768C134.645 26.1284 134.51 18.0955 136.464 15.8652C139.094 12.9227 151.905 12.2107 151.905 12.2107C151.905 12.2107 156.99 23.1035 155.772 26.6286C154.783 29.4768 147.651 33.5492 144.838 35.0616C144.494 35.2475 144.109 35.3419 143.718 35.3357C143.327 35.3295 142.945 35.2229 142.607 35.0263Z" stroke="#999999" stroke-linecap="round" stroke-linejoin="round"/>
<path d="M137.27 72.7953C157.096 72.7953 173.168 56.7234 173.168 36.8977C173.168 17.0719 157.096 1 137.27 1C117.444 1 101.372 17.0719 101.372 36.8977C101.372 56.7234 117.444 72.7953 137.27 72.7953Z" stroke="#999999" stroke-linecap="round" stroke-linejoin="round"/>
<path d="M137.599 8.20307V1" stroke="#999999" stroke-linecap="round" stroke-linejoin="round"/>
<path d="M136.94 65.5981V72.7953" stroke="#999999" stroke-linecap="round" stroke-linejoin="round"/>
<path d="M165.97 37.2272H173.167" stroke="#999999" stroke-linecap="round" stroke-linejoin="round"/>
<path d="M108.575 36.5681H101.372" stroke="#999999" stroke-linecap="round" stroke-linejoin="round"/>
<path d="M119.474 19.1666L112.171 11.8635" stroke="#999999" stroke-linecap="round" stroke-linejoin="round"/>
<path d="M154.66 54.7935L162.622 62.7616" stroke="#999999" stroke-linecap="round" stroke-linejoin="round"/>
<path d="M154.877 20.0493L162.845 12.0871" stroke="#999999" stroke-linecap="round" stroke-linejoin="round"/>
<path d="M119.474 54.3521L111.724 62.0966" stroke="#999999" stroke-linecap="round" stroke-linejoin="round"/>
<g opacity="0.3">
<path d="M85.7479 189.68H4.84282L4.84282 43.1474C4.84282 32.6903 8.99689 22.6615 16.3912 15.2672C23.7855 7.87288 33.8143 3.71882 44.2714 3.71882C55.267 3.71882 65.8122 8.0868 73.5872 15.8618C81.3623 23.6369 85.7302 34.1821 85.7302 45.1777L85.7302 189.68H85.7479Z" stroke="black" stroke-linecap="round" stroke-linejoin="round"/>
<path d="M76.6087 189.245V45.5013C76.6118 41.3864 75.804 37.3113 74.2314 33.5087C72.6589 29.7062 70.3524 26.2508 67.4438 23.3401C64.5353 20.4293 61.0816 18.1203 57.2803 16.5448C53.4789 14.9694 49.4044 14.1586 45.2895 14.1586C41.1726 14.1555 37.0955 14.9641 33.2915 16.5381C29.4874 18.1121 26.031 20.4207 23.1199 23.3317C20.2088 26.2428 17.9003 29.6992 16.3262 33.5033C14.7522 37.3074 13.9436 41.3845 13.9467 45.5013V189.268" stroke="black" stroke-linecap="round" stroke-linejoin="round"/>
<path d="M45.2895 3.71881V189.463" stroke="black" stroke-linecap="round" stroke-linejoin="round"/>
<path d="M85.3124 39.4988H5.37834" stroke="black" stroke-linecap="round" stroke-linejoin="round"/>
<path d="M85.3124 64.7272H5.37834" stroke="black" stroke-linecap="round" stroke-linejoin="round"/>
<path d="M85.3124 89.9556H5.37834" stroke="black" stroke-linecap="round" stroke-linejoin="round"/>
<path d="M85.3124 115.19H5.37834" stroke="black" stroke-linecap="round" stroke-linejoin="round"/>
<path d="M85.3124 140.418H5.37834" stroke="black" stroke-linecap="round" stroke-linejoin="round"/>
<path d="M85.3124 165.647H5.37834" stroke="black" stroke-linecap="round" stroke-linejoin="round"/>
<path d="M74.6255 16.3418L67.3753 22.9446" stroke="black" stroke-linecap="round" stroke-linejoin="round"/>
<path d="M16.2653 16.3418L23.5096 22.9446" stroke="black" stroke-linecap="round" stroke-linejoin="round"/>
</g>
<path d="M170.578 101.408C170.578 101.408 174.233 103.52 179.046 108.716C183.86 113.913 186.55 129.69 181.159 132.768C175.769 135.846 172.503 129.884 172.503 134.498C172.503 139.112 177.699 141.813 171.914 146.621C166.129 151.429 153.824 151.046 152.288 142.584C150.752 134.121 157.673 128.919 158.826 123.34C159.98 117.762 158.444 106.792 159.597 102.561C160.75 98.3297 164.228 98.112 170.578 101.408Z" fill="#263238" stroke="#263238" stroke-linecap="round" stroke-linejoin="round"/>
<path d="M83.8236 49.3383C83.8236 49.3383 82.3641 48.1613 81.5814 48.1613C80.7987 48.1613 80.4574 49.1499 79.3334 50.0268C78.2094 50.9036 76.5263 51.3391 77.5326 51.7922C78.0754 52.0005 78.6641 52.0596 79.2374 51.9634C79.8108 51.8671 80.3478 51.6191 80.7928 51.2449C81.6932 50.474 81.6932 50.9154 82.3641 51.0213L83.0409 51.1331L83.8236 49.3383Z" stroke="#263238" stroke-linecap="round" stroke-linejoin="round"/>
<path d="M82.0287 51.857C82.0287 51.857 78.998 51.3097 78.7684 52.1865C78.6468 52.5362 78.6382 52.9152 78.7438 53.2701C78.8494 53.6249 79.0639 53.9376 79.3569 54.1638C79.8367 54.4255 80.3954 54.5029 80.9282 54.3816L82.0287 51.857Z" stroke="#263238" stroke-linecap="round" stroke-linejoin="round"/>
<path d="M78.5448 52.8456C78.5448 52.8456 76.8618 53.5047 77.309 54.7111C77.7563 55.9175 79.6629 56.1353 79.6629 56.1353L80.3397 54.7111C79.538 54.3234 78.9013 53.6617 78.5448 52.8456Z" stroke="#263238" stroke-linecap="round" stroke-linejoin="round"/>
<path d="M77.4208 55.1525C77.1714 55.5827 77.0916 56.0906 77.1972 56.5766C77.4208 57.2357 78.7685 57.783 78.7685 57.783L79.6688 56.1353C79.6688 56.1353 77.5326 55.588 77.4208 55.1525Z" stroke="#263238" stroke-linecap="round" stroke-linejoin="round"/>
<path d="M77.1972 56.5766C77.1972 56.5766 76.4145 57.018 76.75 57.6712C76.9062 57.888 77.1065 58.0692 77.3377 58.2031C77.569 58.337 77.8259 58.4205 78.0917 58.448L78.7626 57.7889C78.7626 57.7889 77.309 57.018 77.1972 56.5766Z" stroke="#263238" stroke-linecap="round" stroke-linejoin="round"/>
<path d="M157.108 99.0536C157.108 99.0536 149.605 93.6689 146.515 91.9388C143.425 90.2086 136.511 89.0493 136.511 89.0493L118.997 76.1615C118.997 76.1615 108.611 68.4641 103.414 65.5687C98.2179 62.6734 89.3671 56.7414 89.3671 56.7414L84.3767 49.6207L78.7979 59.2366L88.2137 61.3551C88.2137 61.3551 105.751 76.9441 110.158 80.987C114.566 85.0299 117.856 86.3776 117.856 86.3776C117.856 86.3776 126.518 95.0342 130.173 97.9178C133.827 100.801 135.557 101.572 135.557 101.572C135.557 101.572 135.175 109.846 134.38 112.93C133.586 116.014 132.456 118.509 130.726 119.086C129.986 119.382 129.21 119.58 128.419 119.674C128.419 119.674 127.242 131.026 131.108 137.182C134.975 143.337 143.425 143.149 145.732 143.149C148.039 143.149 153.235 136.222 153.235 136.222C153.235 136.222 158.626 134.104 160.739 132.179C162.851 130.255 166.406 121.928 166.406 121.928C170.406 122.935 174.51 123.47 178.635 123.523C184.984 123.523 193.835 120.251 193.835 120.251C193.835 120.251 205.958 120.251 211.731 118.521C217.504 116.791 232.51 111.594 232.51 111.594C232.51 111.594 237.895 113.13 242.132 112.942C246.369 112.754 250.018 112.353 251.171 111.765C251.879 111.395 252.427 110.78 252.713 110.035C252.941 110.033 253.166 109.979 253.37 109.877C253.574 109.775 253.752 109.628 253.89 109.446C254.163 109.017 254.413 108.573 254.638 108.116C254.638 108.116 255.597 108.116 255.597 107.345C255.597 106.574 252.713 105.421 252.713 105.421C252.713 105.421 255.985 104.244 254.638 103.885C253.29 103.526 241.938 103.297 241.938 103.297C241.938 103.297 241.556 102.331 243.115 101.949C244.674 101.566 247.158 99.8304 246.004 99.642L244.827 99.4478C243.734 99.9981 242.569 100.394 241.367 100.625C240.173 100.761 239.04 101.228 238.095 101.972C237.324 102.561 233.287 106.592 233.287 106.592C229.057 107.565 224.734 108.08 220.394 108.128C212.508 108.322 209.801 108.128 204.81 109.093C199.82 110.058 194.612 111.194 194.612 111.194L180.947 111.965C180.947 111.965 175.563 111.771 174.215 111.376C172.867 110.982 170.178 110.199 166.712 106.757C164.112 104.265 161.348 101.951 158.438 99.8304L157.108 99.0536Z" fill="white" stroke="#263238" stroke-linecap="round" stroke-linejoin="round"/>
<path d="M252.737 105.421L247.54 105.615" stroke="#263238" stroke-linecap="round" stroke-linejoin="round"/>
<path d="M254.661 108.116L247.352 107.734" stroke="#263238" stroke-linecap="round" stroke-linejoin="round"/>
<path d="M252.737 110.041L248.117 110.235" stroke="#263238" stroke-linecap="round" stroke-linejoin="round"/>
<path d="M247.54 104.844L248.117 111.006" stroke="#263238" stroke-linecap="round" stroke-linejoin="round"/>
<path d="M242.156 104.656C242.116 105.374 241.985 106.084 241.767 106.769C241.385 108.116 237.154 108.31 237.154 108.31" stroke="#263238" stroke-linecap="round" stroke-linejoin="round"/>
<path d="M193.859 120.239L204.634 117.355" stroke="#263238" stroke-linecap="round" stroke-linejoin="round"/>
<path d="M166.429 121.916L168.077 118.509" stroke="#263238" stroke-linecap="round" stroke-linejoin="round"/>
<path d="M135.557 101.572L139.212 103.885" stroke="#263238" stroke-linecap="round" stroke-linejoin="round"/>
<path d="M138.829 100.036L139.6 105.233" stroke="#263238" stroke-linecap="round" stroke-linejoin="round"/>
<path d="M160.38 111.965C160.38 111.965 161.557 109.081 163.075 105.809C164.593 102.537 166.729 102.732 167.5 103.114C168.271 103.497 171.155 104.462 171.926 103.703C172.697 102.943 176.54 96.7761 176.54 96.7761C176.54 96.7761 178.464 96.7761 179.046 95.8169L177.505 91.774C177.505 91.774 178.682 90.597 178.682 89.4671V86.3893C178.682 86.3893 179.453 82.1522 179.453 81.193C179.453 80.2338 175.604 79.0745 171.755 80.8046C167.906 82.5348 157.131 86.9661 155.978 89.6319C154.824 92.2977 154.436 98.2944 154.436 98.2944C154.436 98.2944 153.848 100.795 152.706 104.45" fill="white"/>
<path d="M160.38 111.965C160.38 111.965 161.557 109.081 163.075 105.809C164.593 102.537 166.729 102.732 167.5 103.114C168.271 103.497 171.155 104.462 171.926 103.703C172.697 102.943 176.54 96.7761 176.54 96.7761C176.54 96.7761 178.464 96.7761 179.046 95.8169L177.505 91.774C177.505 91.774 178.682 90.597 178.682 89.4671V86.3893C178.682 86.3893 179.453 82.1522 179.453 81.193C179.453 80.2338 175.604 79.0745 171.755 80.8046C167.906 82.5348 157.131 86.9661 155.978 89.6319C154.824 92.2977 154.436 98.2944 154.436 98.2944C154.436 98.2944 153.848 100.795 152.706 104.45" stroke="#263238" stroke-linecap="round" stroke-linejoin="round"/>
<path d="M163.263 91.4032C163.263 91.4032 162.675 86.5894 160.185 87.7429C157.696 88.8963 158.073 92.5567 158.838 93.7101C159.603 94.8635 160.956 94.6693 158.455 96.2112C155.954 97.753 153.647 98.7122 151.911 96.2112C150.175 93.7101 147.103 88.5138 150.734 82.3582C154.365 76.2026 162.475 71.177 169.401 71.7655C176.328 72.354 176.133 75.0316 176.133 75.0316C176.133 75.0316 180.941 71.9538 184.213 77.1501C187.485 82.3464 186.138 85.23 184.802 85.23C183.466 85.23 182.878 83.6941 182.878 83.6941C182.878 83.6941 181.918 85.6184 180.953 86.0009C180.21 86.2527 179.431 86.3839 178.646 86.3893L178.058 82.5406C178.058 82.5406 172.285 81.5755 171.514 83.8824C170.743 86.1893 170.337 89.0787 168.054 90.2322C166.555 90.9485 164.924 91.3472 163.263 91.4032Z" fill="#263238" stroke="#263238" stroke-linecap="round" stroke-linejoin="round"/>
<path d="M176.063 91.568C176.063 92.2095 175.763 92.745 175.386 92.745C175.009 92.745 174.715 92.233 174.715 91.568C174.715 90.903 175.015 90.391 175.386 90.391C175.757 90.391 176.063 90.9325 176.063 91.568Z" fill="#263238"/>
<path d="M173.85 89.2611C173.85 89.2611 175.198 87.3368 177.122 89.2611" stroke="#263238" stroke-linecap="round" stroke-linejoin="round"/>
<path d="M171.349 96.9585C171.539 97.468 171.881 97.907 172.328 98.2163C172.775 98.5257 173.306 98.6905 173.85 98.6887" stroke="#263238" stroke-linecap="round" stroke-linejoin="round"/>
<path d="M167.5 103.114L162.687 98.6887L163.457 104.844C163.457 104.844 164.599 101.766 167.5 103.114Z" fill="#263238" stroke="#263238" stroke-linecap="round" stroke-linejoin="round"/>
<path d="M128.443 119.651L126.707 119.456C123.907 116.726 120.467 114.741 116.702 113.683C110.741 112.147 101.696 114.272 101.696 114.272C101.696 114.272 91.6916 108.693 85.1476 104.462C78.6037 100.231 71.4889 96.3818 71.4889 96.3818C71.4889 96.3818 78.6037 81.758 79.763 74.0606C80.9223 66.3632 82.4524 61.3904 83.4175 59.625C84.3826 57.8595 85.3418 55.9705 85.3418 55.9705C85.3418 55.9705 89.1905 57.5064 90.5323 56.1588C91.874 54.8112 91.3032 50.0032 91.4974 48.4614C91.6916 46.9196 92.0859 42.6942 92.0859 40.9582V38.4395C92.0859 38.4395 93.2629 36.3268 91.7034 36.7093C90.1439 37.0919 89.2023 38.4395 88.4314 39.5929C87.6605 40.7464 84.2002 48.4202 81.6932 52.4867C79.1863 56.5531 71.689 68.6524 66.881 77.1148C62.0731 85.5772 58.7893 96.3818 57.0533 100.231C55.3173 104.079 56.865 107.734 57.6418 108.31C58.4186 108.887 67.6461 118.509 75.5377 123.317C83.4293 128.125 87.8547 131.591 90.3557 132.556C92.8568 133.521 99.9775 138.712 100.743 141.383C101.508 144.055 97.6647 158.314 100.554 167.742C103.444 177.169 104.209 183.713 104.015 187.368C103.82 191.022 101.131 195.448 101.131 202.374C101.131 209.301 104.591 221.794 104.98 223.924C105.368 226.055 106.904 233.929 106.904 236.624C106.904 239.319 106.133 245.451 106.516 246.246C106.898 247.04 111.712 247.593 113.254 247.205C114.624 246.763 116.047 246.504 117.485 246.434C119.021 246.434 122.87 247.023 125.182 247.023C127.495 247.023 129.608 247.217 129.796 246.434C129.984 245.651 127.872 244.704 127.107 244.51C126.342 244.315 121.522 242.585 119.215 239.896C116.908 237.207 114.407 234.7 113.83 233.158C113.254 231.616 114.419 212.767 115.178 206.417C115.937 200.067 116.908 192.947 117.291 191.216C117.673 189.486 119.409 185.826 120.369 178.705C121.328 171.584 122.87 152.153 123.064 150.617C123.368 148.994 123.761 147.389 124.241 145.809C124.241 145.809 135.593 143.69 138.288 143.69C140.983 143.69 144.832 143.496 146.756 142.513C148.681 141.53 149.063 138.47 146.945 136.163C144.826 133.857 138.117 130.773 135.763 126.748C134.663 124.708 133.374 122.775 131.915 120.975L128.443 119.651Z" fill="white" stroke="#263238" stroke-linecap="round" stroke-linejoin="round"/>
<path d="M127.354 119.539L126.707 119.468C123.907 116.738 120.467 114.753 116.702 113.695C110.741 112.159 101.696 114.284 101.696 114.284C101.696 114.284 91.6916 108.705 85.1476 104.474C78.6037 100.242 71.4889 96.3936 71.4889 96.3936C71.4889 96.3936 78.6037 81.7697 79.763 74.0723C80.0219 72.3069 80.3044 70.7415 80.5928 69.282C78.5049 67.6853 76.1875 66.4135 73.7192 65.5098C71.3653 69.4527 68.8701 73.6074 66.8693 77.1325C62.0554 85.6008 58.7893 96.376 57.0533 100.225C55.3173 104.073 56.865 107.728 57.6418 108.305C58.4186 108.881 67.6461 118.503 75.5377 123.311C83.4293 128.119 87.8547 131.585 90.3557 132.55C92.8568 133.515 99.9775 138.706 100.743 141.377C101.508 144.049 97.6647 158.308 100.554 167.736C103.444 177.163 104.209 183.707 104.015 187.362C103.82 191.016 101.131 195.442 101.131 202.368C101.131 209.295 104.591 221.788 104.98 223.919C105.033 224.225 105.115 224.654 105.209 225.166C109.146 225.966 111.924 225.507 113.842 224.666C114.131 218.328 114.719 210.172 115.178 206.423C115.943 200.073 116.908 192.952 117.291 191.222C117.673 189.492 119.409 185.832 120.369 178.711C121.328 171.59 122.87 152.159 123.064 150.623C123.368 149 123.761 147.395 124.241 145.815C124.241 145.815 125.824 145.515 127.948 145.15C122.658 135.381 125.812 123.899 127.354 119.539Z" fill="#263238" stroke="#263238" stroke-linecap="round" stroke-linejoin="round"/>
<path d="M163.528 127.713C166.429 120.522 165.188 118.933 165.188 116.39C165.188 112.542 165.382 105.615 165.382 105.615L165.158 105.274L164.57 104.774C164.404 107.545 163.894 110.285 163.051 112.93C161.704 116.773 158.432 119.086 153.236 115.431C148.039 111.777 151.7 105.809 151.7 105.809C151.7 105.809 153.736 99.336 153.665 96.6584L151.588 95.2284C151.635 97.6706 151.411 102.484 149.198 105.821C146.121 110.435 142.655 113.324 139 112.748C137.501 112.517 136.043 112.076 134.669 111.435C134.58 112.024 134.486 112.524 134.38 112.942C133.609 116.02 132.456 118.521 130.726 119.097C129.986 119.394 129.21 119.592 128.419 119.686C128.419 119.686 127.242 131.038 131.108 137.193C134.975 143.349 143.425 143.161 145.732 143.161C148.039 143.161 153.236 136.234 153.236 136.234C153.236 136.234 158.626 134.116 160.739 132.191C161.975 131.067 162.934 129.155 163.528 127.713Z" fill="#5182FF" stroke="#263238" stroke-linecap="round" stroke-linejoin="round"/>
<path d="M136.523 120.433C136.523 120.433 136.711 125.818 142.101 126.971" stroke="#263238" stroke-linecap="round" stroke-linejoin="round"/>
<path d="M215.209 247.352H277" stroke="#263238" stroke-linecap="round" stroke-linejoin="round"/>
<path d="M1 247.352H208.736" stroke="#263238" stroke-linecap="round" stroke-linejoin="round"/>
</svg>
